<?xml version="1.0" standalone="no"?>
<!DOCTYPE svg PUBLIC "-//W3C//DTD SVG 20010904//EN"
 "http://www.w3.org/TR/2001/REC-SVG-20010904/DTD/svg10.dtd">
<svg version="1.0" xmlns="http://www.w3.org/2000/svg"
 width="1920.000000pt" height="1080.000000pt" viewBox="0 0 1920.000000 1080.000000"
 preserveAspectRatio="xMidYMid meet">

<g transform="translate(0.000000,1080.000000) scale(0.100000,-0.100000)"
fill="#000000" stroke="none">
<path d="M0 5400 l0 -5400 9600 0 9600 0 0 5400 0 5400 -9600 0 -9600 0 0
-5400z m4127 4338 c-3 -8 -6 -5 -6 6 -1 11 2 17 5 13 3 -3 4 -12 1 -19z m174
-27 c4 7 6 -5 4 -30 -4 -61 -20 -70 -20 -10 0 27 2 44 4 38 2 -8 6 -7 12 2z
m37 -102 c-3 -8 -7 -3 -11 10 -4 17 -3 21 5 13 5 -5 8 -16 6 -23z m-89 -33 c6
-7 8 -21 5 -31 -6 -15 -9 -15 -20 6 -7 13 -13 27 -14 32 0 12 17 8 29 -7z m12
-121 c-3 -5 -7 -2 -9 8 -2 9 -9 17 -15 17 -7 0 -6 4 3 10 11 7 17 5 21 -8 4
-9 4 -21 0 -27z m-304 -7 c-3 -8 -6 -5 -6 6 -1 11 2 17 5 13 3 -3 4 -12 1 -19z
m140 -30 c-3 -8 -6 -5 -6 6 -1 11 2 17 5 13 3 -3 4 -12 1 -19z m147 -10 c12
-17 13 -24 4 -29 -13 -8 -30 10 -22 23 3 4 0 8 -5 8 -6 0 -11 5 -11 10 0 17
18 11 34 -12z m-287 -40 c-3 -8 -6 -5 -6 6 -1 11 2 17 5 13 3 -3 4 -12 1 -19z
m2023 -8 c0 -5 -2 -10 -4 -10 -3 0 -8 5 -11 10 -3 6 -1 10 4 10 6 0 11 -4 11
-10z m1688 2 c51 -15 122 -95 122 -137 0 -28 -31 -84 -68 -122 -27 -28 -36
-33 -43 -22 -7 12 -9 12 -9 0 0 -20 -72 -8 -108 18 -48 34 -75 110 -60 171 9
37 33 63 71 81 44 20 58 21 95 11z m-3289 -86 c0 -21 0 -21 -9 1 -6 15 -15 21
-25 17 -8 -3 -15 -1 -15 6 0 6 5 8 10 5 6 -3 10 1 10 10 0 10 -5 13 -12 9 -7
-5 -8 -3 -3 6 11 18 45 -24 44 -54z m-254 -106 c3 -5 1 -10 -4 -10 -6 0 -11 5
-11 10 0 6 2 10 4 10 3 0 8 -4 11 -10z m230 -80 c3 -5 1 -10 -4 -10 -6 0 -11
5 -11 10 0 6 2 10 4 10 3 0 8 -4 11 -10z m25 -40 c0 -5 -2 -10 -4 -10 -3 0 -8
5 -11 10 -3 6 -1 10 4 10 6 0 11 -4 11 -10z m-433 -82 c-3 -8 -6 -5 -6 6 -1
11 2 17 5 13 3 -3 4 -12 1 -19z m1960 -180 c-2 -13 -4 -5 -4 17 -1 22 1 32 4
23 2 -10 2 -28 0 -40z m-110 -80 c-3 -7 -5 -2 -5 12 0 14 2 19 5 13 2 -7 2
-19 0 -25z m-1680 -80 c-3 -8 -6 -5 -6 6 -1 11 2 17 5 13 3 -3 4 -12 1 -19z
m1790 -15 c-3 -10 -5 -4 -5 12 0 17 2 24 5 18 2 -7 2 -21 0 -30z m4 -109 c-8
-29 -8 -29 -15 -5 -6 16 -4 26 5 32 18 11 20 8 10 -27z m20 -71 c-10 -17 -10
-16 -11 3 0 23 13 41 18 25 2 -6 -1 -18 -7 -28z m-1570 -10 c2 -13 2 -47 0
-68 -2 -19 -3 -19 -21 4 -11 13 -20 31 -20 40 0 14 2 14 10 1 8 -12 10 -11 10
8 0 20 18 33 21 15z m1566 -70 c-3 -10 -5 -4 -5 12 0 17 2 24 5 18 2 -7 2 -21
0 -30z m-1577 -52 c0 -9 6 -23 13 -30 9 -11 7 -10 -10 0 -13 8 -23 24 -23 37
0 13 4 20 10 17 6 -3 10 -14 10 -24z m10 -178 c0 -7 -4 -13 -9 -13 -16 0 -33
30 -26 47 6 17 7 17 21 -1 8 -11 14 -26 14 -33z m1479 -175 c-1 -50 -3 -57 -8
-32 -7 29 -4 94 5 94 2 0 4 -28 3 -62z m-1489 33 c0 -11 3 -28 6 -38 5 -12 4
-15 -4 -8 -16 15 -26 65 -13 65 6 0 11 -9 11 -19z m1157 -33 c-3 -8 -6 -5 -6
6 -1 11 2 17 5 13 3 -3 4 -12 1 -19z m-1152 -119 c10 -30 -4 -43 -26 -23 -24
22 -24 39 1 41 11 1 22 -6 25 -18z m914 -111 c0 -22 -1 -22 -9 -3 -5 12 -9 14
-9 6 -1 -8 -4 -12 -7 -8 -8 7 4 27 17 27 5 0 9 -10 8 -22z m-910 -54 c6 -15 9
-29 6 -32 -3 -3 -5 1 -5 9 0 12 -2 11 -10 -1 -9 -13 -11 -13 -20 0 -14 22 -12
50 3 50 8 0 19 -12 26 -26z m-9 -69 c13 -16 6 -35 -14 -35 -8 0 -13 11 -13 25
0 28 9 32 27 10z m-2 -77 c7 -7 12 -19 12 -27 0 -11 -4 -10 -20 4 -21 19 -26
35 -12 35 4 0 13 -5 20 -12z m2 -193 c0 -14 -4 -25 -10 -25 -5 0 -10 11 -10
25 0 14 5 25 10 25 6 0 10 -11 10 -25z m27 -6 c2 -16 -1 -19 -9 -11 -5 5 -7
15 -4 21 10 15 12 14 13 -10z m-27 -59 c0 -5 7 -10 15 -10 19 0 20 -36 0 -43
-8 -4 -18 -1 -22 6 -12 20 -15 57 -3 57 5 0 10 -4 10 -10z m13 -84 c18 -14 24
-46 8 -46 -25 0 -41 14 -41 36 0 27 7 29 33 10z m-13 -76 c0 -5 7 -10 15 -10
19 0 19 -20 -1 -48 -14 -20 -14 -23 0 -28 9 -3 16 -16 16 -28 0 -14 -3 -17 -8
-8 -5 7 -16 10 -25 6 -13 -5 -17 0 -17 19 0 14 7 27 15 31 8 3 15 15 15 26 0
12 -4 18 -10 15 -5 -3 -10 -4 -10 -1 0 2 -3 11 -6 20 -3 9 -1 16 5 16 6 0 11
-4 11 -10z m-1117 -115 c44 -26 71 -50 71 -59 -1 -9 2 -16 8 -16 5 0 7 -4 3
-9 -3 -5 -17 1 -30 15 -14 14 -30 22 -35 19 -6 -3 -10 -2 -10 3 0 5 -16 17
-35 28 -19 10 -35 22 -35 26 0 4 -12 14 -27 21 -30 15 -64 12 -75 -7 -5 -7 -8
-4 -8 7 0 10 -4 15 -10 12 -5 -3 -10 2 -10 13 0 19 3 19 61 5 35 -8 92 -33
132 -58z m-216 43 c-3 -8 -6 -5 -6 6 -1 11 2 17 5 13 3 -3 4 -12 1 -19z m1353
-109 c7 -12 7 -20 0 -24 -5 -3 -10 2 -10 12 0 14 -2 15 -9 5 -7 -11 -10 -10
-15 3 -3 9 -6 21 -6 26 0 14 30 -2 40 -22z m-1190 -38 c0 -6 -4 -13 -10 -16
-5 -3 -10 1 -10 9 0 9 5 16 10 16 6 0 10 -4 10 -9z m-26 -26 c3 -8 1 -15 -4
-15 -6 0 -10 7 -10 15 0 8 2 15 4 15 2 0 6 -7 10 -15z m1210 0 c24 -18 14 -45
-13 -38 -14 3 -21 14 -21 29 0 27 7 29 34 9z m-1047 -42 c3 -7 -4 -9 -16 -6
-12 3 -18 9 -15 15 7 11 26 6 31 -9z m-150 -45 c-3 -8 -6 -5 -6 6 -1 11 2 17
5 13 3 -3 4 -12 1 -19z m150 -14 c12 -11 13 -18 4 -27 -8 -8 -11 -7 -11 6 0 9
-4 17 -10 17 -5 0 -10 5 -10 10 0 14 9 12 27 -6z m-80 -26 c-3 -7 -5 -2 -5 12
0 14 2 19 5 13 2 -7 2 -19 0 -25z m105 -10 c-7 -7 -12 -8 -12 -2 0 14 12 26
19 19 2 -3 -1 -11 -7 -17z m233 -8 c3 -5 1 -10 -4 -10 -6 0 -11 5 -11 10 0 6
2 10 4 10 3 0 8 -4 11 -10z m772 -52 c-3 -7 -5 -2 -5 12 0 14 2 19 5 13 2 -7
2 -19 0 -25z m1443 2 c0 -5 -2 -10 -4 -10 -3 0 -8 5 -11 10 -3 6 -1 10 4 10 6
0 11 -4 11 -10z m-2763 -32 c-3 -8 -6 -5 -6 6 -1 11 2 17 5 13 3 -3 4 -12 1
-19z m2646 7 c4 -8 1 -17 -5 -21 -7 -4 -8 -3 -4 4 4 7 2 12 -4 12 -6 0 -8 5
-5 10 8 14 12 13 18 -5z m-2606 -17 c-3 -8 -6 -5 -6 6 -1 11 2 17 5 13 3 -3 4
-12 1 -19z m170 -30 c-3 -8 -6 -5 -6 6 -1 11 2 17 5 13 3 -3 4 -12 1 -19z
m2240 -4 c-3 -4 -2 -14 3 -23 6 -13 4 -17 -11 -18 -11 -1 -18 1 -16 5 2 4 7
15 10 25 4 9 10 17 13 17 4 0 4 -3 1 -6z m-119 -53 c-9 -14 -14 -16 -24 -7 -6
6 -10 15 -7 20 3 4 9 2 14 -5 7 -11 9 -10 9 4 0 10 4 15 10 12 6 -4 5 -13 -2
-24z m-2121 -113 c-3 -7 -5 -2 -5 12 0 14 2 19 5 13 2 -7 2 -19 0 -25z m2119
23 c-4 -5 0 -11 6 -14 7 -2 9 -8 5 -13 -4 -5 -12 -2 -17 6 -13 20 -12 30 1 30
5 0 8 -4 5 -9z m-2277 -40 c7 -5 12 -14 9 -21 -2 -8 -11 -5 -28 9 -17 14 -20
20 -10 21 8 0 21 -4 29 -9z m226 -41 c8 -13 -1 -13 -26 0 -10 6 -19 15 -19 21
0 11 35 -5 45 -21z m-75 -4 c0 -11 -19 -15 -25 -6 -3 5 1 10 9 10 9 0 16 -2
16 -4z m2148 -10 c-7 -8 -17 -12 -22 -9 -4 3 -2 9 5 14 22 13 31 11 17 -5z
m-2142 -44 c14 -20 14 -22 -3 -22 -10 1 -31 11 -46 24 l-28 23 31 -2 c19 -1
36 -10 46 -23z m35 5 c-1 -12 -15 -9 -19 4 -3 6 1 10 8 8 6 -3 11 -8 11 -12z
m43 -8 c-6 -11 -24 -2 -24 11 0 5 7 7 15 4 8 -4 12 -10 9 -15z m51 10 c12 -19
-5 -23 -22 -6 -16 16 -16 17 -1 17 9 0 20 -5 23 -11z m91 -16 c-10 -10 -19 5
-10 18 6 11 8 11 12 0 2 -7 1 -15 -2 -18z m-46 13 c0 -3 -4 -8 -10 -11 -5 -3
-10 -1 -10 4 0 6 5 11 10 11 6 0 10 -2 10 -4z m2310 -18 c0 -18 -2 -20 -9 -8
-6 8 -7 18 -5 22 9 14 14 9 14 -14z m-2646 -24 c4 -9 4 -19 1 -22 -3 -3 -5 1
-5 9 0 12 -2 12 -10 -1 -11 -18 -25 -7 -17 15 8 20 23 19 31 -1z m241 -42 c-3
-3 -11 0 -18 7 -9 10 -8 11 6 5 10 -3 15 -9 12 -12z m1982 -34 c-3 -7 -5 -2
-5 12 0 14 2 19 5 13 2 -7 2 -19 0 -25z m-2207 -22 c0 -11 5 -28 10 -36 6 -10
4 -20 -7 -32 -10 -11 -12 -18 -5 -18 7 0 12 5 12 10 0 6 9 10 20 10 11 0 20 6
20 14 0 10 7 12 23 8 18 -5 19 -7 5 -10 -21 -4 -23 -13 -6 -30 20 -20 47 -14
54 13 3 14 10 25 15 25 5 0 6 -7 3 -15 -4 -8 -1 -21 5 -29 9 -11 8 -14 -6 -12
-10 0 -17 -5 -15 -11 3 -16 -4 -16 -31 -1 -26 14 -79 19 -71 7 3 -5 -2 -9 -10
-9 -9 0 -16 -5 -16 -10 0 -6 12 -8 27 -5 41 7 57 -29 27 -60 -20 -20 -16 -25
14 -14 17 6 22 16 22 44 0 37 8 43 28 23 9 -9 12 -9 12 0 0 20 20 14 71 -24
57 -42 65 -63 12 -32 -22 13 -38 18 -40 12 -2 -6 -14 -9 -26 -7 -12 2 -31 -3
-41 -12 -16 -12 -17 -17 -6 -30 9 -11 9 -15 1 -15 -7 0 -9 -5 -6 -10 4 -6 15
-8 26 -5 27 9 76 -3 76 -19 0 -8 -14 -12 -43 -10 -30 2 -49 -3 -65 -17 l-22
-19 24 -26 c17 -18 19 -23 6 -18 -10 3 -17 1 -17 -5 0 -6 -4 -11 -9 -11 -5 0
-7 10 -4 23 4 19 3 20 -7 5 -6 -10 -20 -18 -30 -18 -11 0 -20 -5 -20 -12 0 -7
-12 -24 -26 -39 l-25 -26 25 4 c18 4 28 0 32 -10 4 -12 14 -15 37 -10 18 3 36
11 40 17 5 6 6 1 2 -11 -4 -15 0 -25 12 -32 10 -6 13 -11 7 -11 -6 0 -17 7
-24 15 -7 8 -20 15 -30 15 -17 0 -21 -11 -20 -67 0 -18 -4 -33 -10 -33 -6 0
-8 -4 -5 -10 3 -5 2 -10 -4 -10 -5 0 -13 5 -16 10 -3 6 -2 10 3 10 5 0 12 11
14 24 4 17 1 23 -9 19 -7 -3 -13 -11 -13 -19 0 -13 -10 -17 -27 -11 -5 1 -7 8
-5 15 3 14 -19 12 -30 -3 -5 -6 -8 -3 -8 7 0 11 -5 15 -15 12 -8 -4 -15 -1
-15 5 0 6 5 11 12 11 6 0 9 2 7 5 -3 2 -20 1 -37 -4 -22 -7 -34 -6 -38 2 -4 7
-4 9 1 5 4 -4 14 0 22 10 8 9 12 11 8 5 -3 -7 -2 -13 4 -13 17 0 29 34 24 64
-5 25 -3 28 13 24 44 -13 49 -12 49 2 0 8 -9 15 -20 16 -11 1 -25 2 -31 3 -8
1 -12 40 -13 126 0 79 3 124 9 120 6 -3 10 -1 10 4 0 6 -4 11 -9 11 -12 0 -12
79 1 119 7 23 13 29 18 21 5 -7 5 -20 2 -29 -5 -13 -3 -14 9 -4 13 10 20 9 37
-8 24 -22 31 -9 7 15 -8 8 -15 27 -15 42 0 22 2 25 15 14 8 -7 15 -22 15 -34z
m2630 18 c0 -8 -5 -12 -10 -9 -6 4 -8 11 -5 16 9 14 15 11 15 -7z m57 -16 c-3
-8 -6 -5 -6 6 -1 11 2 17 5 13 3 -3 4 -12 1 -19z m-1170 -30 c-3 -7 -5 -2 -5
12 0 14 2 19 5 13 2 -7 2 -19 0 -25z m-125 -20 c-9 -9 -12 -7 -12 12 0 19 3
21 12 12 9 -9 9 -15 0 -24z m-1272 -18 c0 -5 -2 -10 -4 -10 -3 0 -8 5 -11 10
-3 6 -1 10 4 10 6 0 11 -4 11 -10z m1778 -73 c-5 -9 -6 -22 -3 -27 3 -5 1 -11
-4 -15 -6 -3 -9 13 -6 42 5 75 7 80 14 48 4 -16 4 -38 -1 -48z m-1618 20 c0
-4 -9 -3 -20 3 -11 6 -20 17 -20 25 0 12 4 12 20 -2 11 -10 20 -21 20 -26z
m970 13 c0 -16 -4 -30 -10 -30 -5 0 -7 6 -4 14 3 7 -2 16 -11 20 -19 7 -11 26
11 26 9 0 14 -11 14 -30z m271 -1 c-5 -13 -10 -19 -10 -12 -1 15 10 45 15 40
3 -2 0 -15 -5 -28z m1166 9 c-3 -8 -6 -5 -6 6 -1 11 2 17 5 13 3 -3 4 -12 1
-19z m-1401 4 c16 -11 23 -37 14 -52 -13 -21 -40 6 -38 36 2 25 6 28 24 16z
m60 -22 c11 0 14 -8 12 -27 -5 -45 -33 -35 -35 12 -1 22 0 34 3 28 3 -7 12
-13 20 -13z m41 -22 c-3 -7 -5 -2 -5 12 0 14 2 19 5 13 2 -7 2 -19 0 -25z
m-1053 -25 c-3 9 -1 17 4 17 6 0 9 -11 6 -25 -3 -19 -1 -23 11 -19 8 4 15 4
15 1 0 -3 -6 -7 -13 -10 -19 -7 -67 36 -67 59 0 16 5 14 25 -11 14 -16 22 -22
19 -12z m-94 13 c0 -3 -4 -8 -10 -11 -5 -3 -10 -1 -10 4 0 6 5 11 10 11 6 0
10 -2 10 -4z m429 -36 c11 -24 11 -24 -3 -6 -9 11 -16 24 -16 30 0 12 5 7 19
-24z m521 25 c0 -2 -10 -9 -22 -15 -22 -11 -22 -10 -4 4 21 17 26 19 26 11z
m350 -7 c0 -9 4 -8 10 2 8 12 10 12 10 1 0 -11 3 -11 15 -1 13 11 15 8 13 -15
-2 -22 -6 -26 -25 -22 -26 5 -29 -9 -8 -37 13 -17 15 -18 15 -3 0 10 8 17 20
17 15 0 20 -7 20 -25 0 -24 -4 -27 -45 -29 -11 -1 -21 -9 -23 -18 -3 -13 3
-18 21 -18 15 0 24 -5 23 -12 -6 -29 -19 -48 -32 -48 -10 0 -14 -12 -14 -37 0
-28 3 -34 10 -23 6 9 10 10 10 3 0 -6 -4 -15 -10 -18 -5 -3 -10 -11 -10 -16 0
-6 5 -7 10 -4 6 4 10 -6 10 -24 0 -16 -4 -33 -10 -36 -5 -3 -10 -15 -10 -26 0
-11 -7 -19 -16 -19 -13 0 -15 8 -10 43 13 84 16 148 9 144 -4 -2 -17 4 -27 14
-11 11 -15 19 -9 19 6 0 13 10 16 22 5 17 9 19 20 10 11 -9 13 -6 9 21 -3 17
-7 26 -9 20 -6 -17 -20 -16 -27 2 -3 8 4 24 17 36 15 15 18 23 10 26 -14 5
-18 45 -6 56 10 11 23 8 23 -5z m295 2 c3 -5 -1 -10 -9 -10 -9 0 -16 5 -16 10
0 6 4 10 9 10 6 0 13 -4 16 -10z m-1555 -10 c0 -5 -8 -10 -17 -10 -15 0 -16 2
-3 10 19 12 20 12 20 0z m962 -30 c-11 -28 -23 -12 -15 19 3 13 9 19 15 13 5
-5 5 -19 0 -32z m48 19 c0 -5 5 -7 12 -3 8 5 9 2 5 -10 -4 -10 -7 -24 -7 -32
0 -8 -5 -14 -11 -14 -6 0 -8 9 -4 23 6 21 6 21 -9 3 -14 -17 -16 -17 -16 -4 0
9 5 20 11 24 8 4 7 9 -2 15 -11 7 -10 9 4 9 9 0 17 -5 17 -11z m-720 -3 c0 -2
-8 -10 -17 -17 -16 -13 -17 -12 -4 4 13 16 21 21 21 13z m830 -22 c0 -8 -4
-14 -10 -14 -5 0 -10 9 -10 21 0 11 5 17 10 14 6 -3 10 -13 10 -21z m-54 -4
c5 0 11 -6 12 -16 3 -10 0 -14 -7 -10 -6 4 -11 0 -11 -9 0 -9 -4 -13 -10 -10
-5 3 -10 21 -10 38 0 21 3 28 9 19 4 -8 12 -13 17 -12z m-1013 -72 c5 -16 4
-16 -18 0 -13 9 -29 28 -35 40 l-10 24 29 -24 c16 -12 31 -31 34 -40z m24 40
c-3 -8 -6 -5 -6 6 -1 11 2 17 5 13 3 -3 4 -12 1 -19z m1850 -10 c-3 -7 -5 -2
-5 12 0 14 2 19 5 13 2 -7 2 -19 0 -25z m-2502 12 c-27 -12 -43 -12 -25 0 8 5
22 9 30 9 10 0 8 -3 -5 -9z m2203 -21 c-3 -8 -7 -3 -11 10 -4 17 -3 21 5 13 5
-5 8 -16 6 -23z m719 -11 c-3 -8 -6 -5 -6 6 -1 11 2 17 5 13 3 -3 4 -12 1 -19z
m69 -10 c4 -6 3 -8 -4 -4 -5 3 -13 0 -15 -6 -3 -8 -6 -6 -6 5 -1 19 14 23 25
5z m-1299 -20 c-3 -8 -6 -5 -6 6 -1 11 2 17 5 13 3 -3 4 -12 1 -19z m-1100
-31 c17 6 17 5 -1 -12 -14 -14 -21 -16 -24 -7 -2 6 -8 12 -13 12 -10 0 -49 37
-49 46 0 4 15 -5 34 -20 23 -17 41 -24 53 -19z m1607 27 c3 -8 2 -12 -4 -9 -6
3 -10 10 -10 16 0 14 7 11 14 -7z m303 -36 c-3 -7 -5 -2 -5 12 0 14 2 19 5 13
2 -7 2 -19 0 -25z m-794 7 c-3 -9 -8 -14 -10 -11 -3 3 -2 9 2 15 9 16 15 13 8
-4z m-1938 -15 c3 -5 1 -10 -4 -10 -6 0 -11 5 -11 10 0 6 2 10 4 10 3 0 8 -4
11 -10z m2429 -16 c3 -8 2 -12 -4 -9 -6 3 -10 10 -10 16 0 14 7 11 14 -7z
m-1736 -21 c21 -9 40 -22 45 -27 4 -7 10 -8 15 -1 15 21 34 16 28 -7 -3 -13
-3 -18 0 -11 6 13 34 6 34 -8 0 -7 -18 -6 -87 3 -7 1 -13 7 -13 15 0 20 -18
16 -31 -8 -11 -21 -11 -21 -25 6 -14 28 -18 55 -8 55 3 0 22 -8 42 -17z m1237
7 c3 -5 1 -10 -4 -10 -6 0 -11 5 -11 10 0 6 2 10 4 10 3 0 8 -4 11 -10z
m-1333 -34 c4 -20 1 -23 -24 -22 -25 1 -33 11 -25 34 1 4 5 6 10 5 4 -2 7 1 7
7 0 19 28 -2 32 -24z m48 -6 c5 0 9 -10 9 -22 -1 -17 -2 -19 -6 -5 -2 9 -11
17 -19 17 -9 0 -14 10 -13 28 0 26 1 26 9 5 5 -13 14 -23 20 -23z m240 -25 c0
-8 -4 -15 -10 -15 -5 0 -7 6 -4 13 3 8 -2 20 -11 27 -8 7 -15 16 -15 21 0 5 9
0 20 -11 11 -11 20 -27 20 -35z m1070 35 c0 -11 -7 -20 -15 -20 -8 0 -15 7
-15 16 0 8 5 12 10 9 6 -3 10 -1 10 4 0 6 2 11 5 11 3 0 5 -9 5 -20z m-1043
-22 c-3 -7 -5 -2 -5 12 0 14 2 19 5 13 2 -7 2 -19 0 -25z m1820 -10 c-3 -7 -5
-2 -5 12 0 14 2 19 5 13 2 -7 2 -19 0 -25z m-2387 12 c0 -5 -10 -10 -22 -9
-22 0 -22 1 -3 9 11 5 21 9 23 9 1 1 2 -3 2 -9z m55 0 c-3 -5 -12 -10 -18 -10
-7 0 -6 4 3 10 19 12 23 12 15 0z m-155 -10 c0 -5 -5 -10 -11 -10 -5 0 -7 5
-4 10 3 6 8 10 11 10 2 0 4 -4 4 -10z m49 -20 c-1 -17 -3 -19 -6 -7 -2 9 -8
15 -13 12 -10 -6 -1 -45 11 -45 5 0 9 -7 9 -15 0 -8 -2 -15 -4 -15 -2 0 -13
-3 -23 -6 -15 -5 -15 -4 -3 5 8 6 10 11 4 11 -7 0 -9 11 -6 26 3 19 1 25 -7
20 -6 -4 -11 -2 -11 3 0 6 5 11 11 11 6 0 9 6 6 13 -3 8 3 13 14 13 14 0 19
-7 18 -26z m1728 -2 c-3 -7 -5 -2 -5 12 0 14 2 19 5 13 2 -7 2 -19 0 -25z
m-1807 7 c9 -10 5 -15 -19 -20 -22 -5 -28 -11 -24 -22 5 -13 3 -14 -16 -3 -13
6 -25 9 -28 7 -2 -3 5 -10 16 -17 28 -14 27 -33 0 -25 -12 4 -24 3 -28 -2 -3
-6 -31 -13 -61 -16 -34 -3 -47 -2 -35 3 16 7 17 9 3 9 -9 1 -20 -4 -24 -10 -3
-6 -23 -9 -44 -7 -21 2 -36 0 -34 -4 4 -6 -18 -11 -94 -22 -12 -2 -25 1 -28 6
-4 7 -9 7 -13 0 -3 -5 -25 -12 -49 -16 -27 -3 -41 -2 -37 4 3 6 13 10 21 10 8
0 14 5 14 11 0 8 6 7 18 -2 15 -12 16 -12 5 2 -7 9 -9 19 -5 24 4 4 -3 2 -16
-4 -18 -10 -27 -9 -44 4 -13 8 -27 15 -32 15 -6 0 -1 -7 11 -15 40 -28 3 -76
-47 -60 -11 3 -20 15 -20 25 0 13 5 17 20 13 11 -3 20 -9 20 -14 0 -5 -8 -6
-17 -2 -14 5 -15 3 -7 -7 7 -7 21 -9 34 -5 18 6 20 9 9 16 -11 7 -9 9 6 10 16
0 14 3 -7 11 -16 5 -28 13 -28 17 0 11 70 42 81 35 5 -3 15 -1 22 4 7 5 28 8
47 7 19 -1 40 1 45 5 6 5 31 11 57 14 25 3 50 6 55 7 19 3 30 -2 61 -31 39
-35 79 -48 95 -30 9 10 9 12 -4 7 -9 -3 -22 -1 -30 4 -9 5 -1 7 24 6 42 -4 47
0 15 12 -13 5 -32 4 -45 -2 -17 -8 -26 -5 -47 16 -14 14 -26 27 -26 29 0 2 22
2 50 1 28 0 52 3 55 7 9 14 113 10 125 -5z m130 -19 c0 -8 -6 -16 -14 -19 -10
-4 -14 0 -13 14 1 21 27 27 27 5z m-90 -25 c0 -4 -14 -8 -31 -8 -28 0 -30 2
-14 13 17 12 45 9 45 -5z m1770 15 c0 -2 -7 -7 -16 -10 -8 -3 -12 -2 -9 4 6
10 25 14 25 6z m404 -12 c3 -8 2 -12 -4 -9 -6 3 -10 10 -10 16 0 14 7 11 14
-7z m-2084 -14 c0 -5 -5 -10 -11 -10 -5 0 -7 5 -4 10 3 6 8 10 11 10 2 0 4 -4
4 -10z m-100 -14 c0 -2 -9 -6 -20 -9 -11 -3 -18 -1 -14 4 5 9 34 13 34 5z
m525 -37 c11 -17 -10 -9 -40 16 l-30 25 32 -16 c18 -8 35 -19 38 -25z m1962
19 c-3 -8 -6 -5 -6 6 -1 11 2 17 5 13 3 -3 4 -12 1 -19z m-2091 -64 c-3 -8 3
-10 16 -6 14 3 19 1 14 -6 -4 -7 -2 -12 5 -12 7 0 10 -2 7 -5 -8 -8 -89 25
-84 34 8 12 47 7 42 -5z m2091 -16 c-3 -8 -6 -5 -6 6 -1 11 2 17 5 13 3 -3 4
-12 1 -19z m-1898 3 c12 -8 13 -12 1 -25 -11 -14 -10 -16 3 -11 17 7 32 -26
28 -62 -1 -11 3 -24 9 -28 5 -3 8 -10 5 -15 -3 -5 -15 0 -26 11 -11 11 -17 25
-13 31 4 6 3 8 -2 5 -26 -16 -45 28 -29 66 5 12 3 17 -9 17 -9 0 -16 5 -16 10
0 12 30 13 49 1z m1778 -33 c2 -17 0 -19 -7 -8 -5 8 -6 18 -4 22 8 12 10 10
11 -14z m-1892 -6 c-3 -3 -11 0 -18 7 -9 10 -8 11 6 5 10 -3 15 -9 12 -12z
m30 -12 c3 -5 1 -10 -4 -10 -6 0 -11 5 -11 10 0 6 2 10 4 10 3 0 8 -4 11 -10z
m1305 -24 c0 -8 -4 -18 -10 -21 -5 -3 -10 3 -10 14 0 12 5 21 10 21 6 0 10 -6
10 -14z m-1530 -6 c0 -5 -7 -10 -16 -10 -8 0 -12 5 -9 10 3 6 10 10 16 10 5 0
9 -4 9 -10z m-475 -29 c-3 -6 -11 -11 -16 -11 -5 0 -4 6 3 14 14 16 24 13 13
-3z m65 7 c0 -4 -7 -8 -15 -8 -8 0 -15 4 -15 8 0 5 7 9 15 9 8 0 15 -4 15 -9z
m47 6 c-3 -3 -12 -4 -19 -1 -8 3 -5 6 6 6 11 1 17 -2 13 -5z m-162 -14 c3 -5
1 -10 -4 -10 -6 0 -11 5 -11 10 0 6 2 10 4 10 3 0 8 -4 11 -10z m610 0 c3 -5
-1 -10 -10 -10 -9 0 -13 5 -10 10 3 6 8 10 10 10 2 0 7 -4 10 -10z m190 0 c3
-5 1 -10 -4 -10 -6 0 -11 5 -11 10 0 6 2 10 4 10 3 0 8 -4 11 -10z m1625 -11
c0 -6 -4 -7 -10 -4 -5 3 -10 11 -10 16 0 6 5 7 10 4 6 -3 10 -11 10 -16z
m-1694 -39 c24 -12 44 -28 44 -36 0 -9 -4 -12 -10 -9 -5 3 -10 1 -10 -5 0 -6
7 -13 15 -16 19 -8 19 -20 1 -27 -10 -4 -13 -1 -9 9 3 7 0 14 -5 14 -6 0 -12
10 -14 23 -2 13 -15 28 -35 37 -25 11 -32 21 -32 40 1 16 3 19 6 8 2 -9 24
-26 49 -38z m-66 19 c0 -4 -7 -6 -15 -3 -8 4 -15 10 -15 15 0 4 7 6 15 3 8 -4
15 -10 15 -15z m-520 3 c0 -5 -7 -17 -15 -28 -12 -16 -16 -17 -24 -5 -6 9 -15
11 -27 6 -18 -7 -41 -13 -71 -17 -7 -1 -11 -5 -10 -9 2 -7 -3 -9 -24 -9 -13 0
-7 35 6 36 6 0 23 4 39 9 20 5 31 4 37 -6 7 -11 9 -10 9 5 0 11 3 17 6 14 3
-3 17 -2 32 2 36 11 42 11 42 2z m659 1 c-5 -31 3 -53 19 -53 11 0 24 -11 30
-25 17 -36 15 -50 -2 -36 -11 10 -15 8 -19 -6 -3 -10 -5 -4 -6 14 -1 18 -8 36
-17 41 -17 10 -28 72 -13 72 5 0 8 -3 8 -7z m1365 -18 c2 -7 -2 -19 -10 -25
-8 -7 -14 -10 -14 -7 0 3 -11 -5 -25 -18 -13 -14 -33 -25 -43 -25 -15 0 -18
-5 -14 -25 3 -18 0 -25 -12 -25 -9 0 -16 8 -16 19 0 12 -12 25 -30 33 -16 7
-30 17 -30 22 0 5 -11 0 -23 -13 -20 -18 -29 -20 -50 -12 -14 5 -28 14 -31 19
-13 21 47 44 72 28 9 -5 15 -2 19 12 3 15 14 20 41 22 21 1 56 2 79 3 23 1 44
5 48 9 10 9 32 -1 39 -17z m-244 5 c11 -7 6 -10 -20 -10 -26 0 -31 3 -20 10 8
5 17 10 20 10 3 0 12 -5 20 -10z m511 -29 c4 7 11 10 16 6 4 -5 1 -12 -7 -17
-22 -14 -30 -12 -29 8 0 12 2 13 6 3 4 -11 7 -11 14 0z m-2486 -21 c-3 -5 -14
-10 -23 -10 -15 0 -15 2 -2 10 20 13 33 13 25 0z m769 4 c21 -8 20 -43 -1 -66
-10 -11 -12 -18 -5 -19 23 -3 64 -19 72 -28 3 -3 14 -11 24 -17 11 -6 22 -16
24 -23 2 -7 -18 1 -44 18 -27 16 -74 37 -104 47 -30 9 -59 20 -65 24 -5 4 -27
13 -47 19 -21 7 -38 16 -38 21 0 11 54 2 58 -10 2 -5 10 -6 18 -3 8 3 21 0 29
-7 8 -7 15 -9 15 -6 0 4 9 2 21 -4 22 -12 49 1 49 24 0 6 -6 4 -13 -4 -16 -21
-48 -14 -40 7 4 11 2 14 -5 9 -7 -4 -12 -3 -12 3 0 5 10 12 23 14 12 2 23 5
24 6 1 0 8 -2 17 -5z m1796 -20 c0 -22 -16 -17 -17 6 -1 11 2 18 8 15 5 -4 9
-13 9 -21z m-270 0 c0 -8 -4 -13 -9 -10 -5 4 -11 1 -13 -6 -3 -7 -7 -3 -10 8
-4 14 0 20 13 21 11 1 19 -5 19 -13z m-2130 -24 c0 -5 -5 -10 -11 -10 -5 0 -7
5 -4 10 3 6 8 10 11 10 2 0 4 -4 4 -10z m-463 -22 c-3 -8 -6 -5 -6 6 -1 11 2
17 5 13 3 -3 4 -12 1 -19z m243 12 c0 -5 -7 -7 -15 -4 -12 5 -14 2 -8 -12 6
-16 4 -17 -9 -7 -8 7 -18 10 -21 6 -4 -3 -7 -1 -7 5 0 10 19 18 48 21 6 0 12
-3 12 -9z m2220 -11 c0 -5 -7 -9 -15 -9 -9 0 -12 6 -9 15 6 15 24 11 24 -6z
m-2130 -29 c0 -13 -11 -13 -30 0 -12 8 -11 10 8 10 12 0 22 -4 22 -10z m651
-23 c-8 -8 -11 -7 -11 4 0 20 13 34 18 19 3 -7 -1 -17 -7 -23z m-751 3 c0 -11
-7 -20 -15 -20 -8 0 -15 5 -15 10 0 6 5 10 11 10 5 0 7 5 4 10 -3 6 -1 10 4
10 6 0 11 -9 11 -20z m652 -27 c27 4 41 0 53 -13 9 -10 36 -22 58 -25 23 -4
53 -13 67 -21 23 -13 64 -29 82 -33 4 -1 22 -15 40 -31 18 -17 36 -30 40 -30
5 0 8 -10 8 -22 -1 -21 -2 -21 -11 -5 -12 21 -33 23 -25 2 3 -8 3 -15 0 -15
-3 0 -10 13 -15 29 -11 30 -66 63 -154 91 -22 7 -44 16 -50 21 -5 5 -17 9 -27
9 -10 0 -18 5 -18 11 0 5 -4 8 -9 5 -5 -3 -36 3 -70 15 -34 11 -66 17 -71 14
-6 -4 -10 3 -10 13 0 20 0 20 38 0 25 -13 49 -18 74 -15z m-424 -27 c11 -12
-21 -25 -37 -16 -10 5 -19 3 -27 -8 -10 -13 -15 -14 -25 -5 -7 7 -18 8 -28 3
-32 -16 -66 -29 -81 -32 -8 -2 -20 -9 -26 -17 -6 -8 -18 -11 -28 -8 -22 9 -11
27 15 27 11 0 23 10 28 23 8 20 10 21 16 4 7 -17 10 -17 33 8 15 17 31 25 43
22 11 -3 19 -1 19 4 0 10 87 5 98 -5z m772 -35 c0 -11 -5 -10 -20 4 -11 10
-20 22 -20 27 0 4 9 3 20 -4 11 -7 20 -19 20 -27z m-804 -20 c-4 -5 3 -7 15
-4 16 5 20 2 18 -12 -3 -12 -15 -18 -41 -21 -38 -3 -52 11 -23 22 8 4 12 10 9
15 -3 5 2 9 11 9 9 0 14 -4 11 -9z m-77 -37 c-11 -13 -52 -7 -43 7 3 5 16 8
29 7 17 -2 21 -6 14 -14z m-169 -12 c0 -5 -7 -9 -15 -9 -8 0 -12 4 -9 9 3 4 9
8 15 8 5 0 9 -4 9 -8z m103 1 c-7 -2 -19 -2 -25 0 -7 3 -2 5 12 5 14 0 19 -2
13 -5z m583 -3 c86 -15 144 -31 144 -41 0 -5 6 -6 13 -3 8 3 20 -2 27 -10 7
-9 16 -14 20 -11 10 6 97 -32 133 -58 15 -12 27 -27 27 -34 0 -13 -18 -1 -61
39 -9 9 -19 14 -22 12 -2 -3 -30 6 -61 20 -31 14 -65 23 -76 21 -11 -2 -20 0
-20 6 0 5 -3 8 -7 7 -10 -2 -116 29 -163 47 -43 17 -32 18 46 5z m-682 -64
c-7 -18 -44 -22 -44 -5 0 6 6 9 14 6 8 -3 17 1 20 10 4 9 9 14 11 11 3 -3 3
-13 -1 -22z m634 -52 c50 -8 112 -27 118 -35 3 -5 16 -9 30 -9 31 0 104 -23
104 -32 0 -4 6 -5 14 -2 8 3 12 13 9 22 -4 15 -3 15 6 2 6 -8 11 -25 11 -37 0
-13 6 -23 14 -23 22 0 61 -36 48 -44 -7 -4 -12 -2 -12 4 0 6 -5 8 -10 5 -6 -4
-8 -11 -5 -16 4 -5 -2 -12 -12 -16 -10 -4 -21 -11 -25 -17 -5 -7 -8 -7 -8 2 0
7 -5 10 -12 6 -7 -5 -9 -1 -6 13 6 22 -6 25 -31 9 -12 -8 -13 0 -7 41 l6 50
-26 -5 c-17 -3 -25 -1 -21 6 4 6 -8 12 -31 15 -20 3 -50 8 -67 12 -16 3 -41 7
-55 9 -38 4 -74 17 -82 29 -9 14 0 29 13 21 5 -3 22 -7 37 -10z m-443 -54 c3
-5 3 -15 -1 -21 -6 -11 -23 6 -24 24 0 10 18 9 25 -3z m444 -11 c-16 -10 -23
-4 -14 10 3 6 11 8 17 5 6 -4 5 -9 -3 -15z m2461 7 c0 -3 -4 -8 -10 -11 -5 -3
-10 -1 -10 4 0 6 5 11 10 11 6 0 10 -2 10 -4z m-2353 -48 c-3 -8 -6 -5 -6 6
-1 11 2 17 5 13 3 -3 4 -12 1 -19z m2310 -6 c1 -12 -2 -22 -7 -22 -6 0 -10 4
-10 9 0 5 -3 17 -7 27 -4 11 -2 15 7 12 7 -2 15 -14 17 -26z m50 -24 c-23 -14
-34 -8 -30 16 5 23 6 23 24 8 14 -12 15 -18 6 -24z m-84 12 c-3 -11 -7 -20 -9
-20 -2 0 -4 9 -4 20 0 11 4 20 9 20 5 0 7 -9 4 -20z m-2210 -23 c-3 -5 -10 -4
-15 1 -6 6 -7 16 -3 22 6 9 9 9 16 -1 4 -7 5 -17 2 -22z m-668 -16 c-3 -6 -11
-11 -17 -11 -6 0 -6 6 2 15 14 17 26 13 15 -4z m32 5 c-3 -7 0 -20 6 -27 10
-11 9 -11 -5 0 -15 11 -15 41 -1 41 3 0 3 -6 0 -14z m87 -1 c-5 -11 -1 -14 12
-9 18 5 18 5 1 -6 -10 -7 -21 -9 -24 -6 -6 6 3 36 11 36 3 0 3 -7 0 -15z m386
6 c0 -5 -12 -7 -27 -5 -39 7 -42 14 -5 14 18 0 32 -4 32 -9z m65 -6 c22 -4 54
-7 70 -6 29 1 29 0 11 -14 -25 -19 -40 -19 -56 0 -11 13 -15 13 -22 3 -8 -10
-11 -10 -15 0 -7 18 -30 15 -43 -5 -11 -17 -11 -17 -6 0 3 10 6 23 6 28 0 6 3
8 8 6 4 -3 25 -8 47 -12z m-702 -10 c-3 -9 -8 -14 -10 -11 -3 3 -2 9 2 15 9
16 15 13 8 -4z m3293 -1 c-3 -9 -6 -22 -6 -30 0 -9 -4 -13 -9 -10 -11 7 -2 56
11 56 6 0 7 -7 4 -16z m-2990 -26 c-1 -23 -32 -32 -71 -21 -15 5 -10 9 25 24
25 10 46 18 46 18 1 1 1 -9 0 -21z m2805 -7 c-8 -5 -11 -16 -8 -25 4 -9 2 -16
-3 -16 -11 0 -12 15 -4 48 5 17 10 20 18 12 8 -8 7 -13 -3 -19z m147 17 c-2
-5 -8 -9 -13 -9 -5 0 -11 4 -13 9 -1 5 4 9 13 9 9 0 14 -4 13 -9z m-2638 -9
c0 -5 -9 -9 -20 -9 -11 0 -20 4 -20 8 0 4 9 8 20 9 11 1 20 -2 20 -8z m2570
-21 c0 -18 -2 -20 -9 -8 -6 8 -7 18 -5 22 9 14 14 9 14 -14z m1590 2 c0 -5 -5
-10 -11 -10 -5 0 -7 5 -4 10 3 6 8 10 11 10 2 0 4 -4 4 -10z m-3850 -35 c0 -5
-5 -3 -10 5 -5 8 -10 20 -10 25 0 6 5 3 10 -5 5 -8 10 -19 10 -25z m-1140 15
c0 -5 -2 -10 -4 -10 -3 0 -8 5 -11 10 -3 6 -1 10 4 10 6 0 11 -4 11 -10z
m3505 -11 c-6 -32 -12 -34 -12 -4 0 14 3 25 8 25 4 0 6 -10 4 -21z m-2750 2
c3 -5 1 -12 -5 -16 -5 -3 -10 1 -10 9 0 18 6 21 15 7z m1835 -5 c0 -2 -11 -6
-25 -8 -14 -3 -25 -1 -25 3 0 5 11 9 25 9 14 0 25 -2 25 -4z m-1783 -21 c0 -8
-4 -15 -9 -15 -10 0 -11 14 -1 23 9 10 10 9 10 -8z m1763 -37 c0 -6 -7 -7 -16
-4 -9 3 -18 6 -20 6 -3 0 -3 4 1 10 7 11 35 2 35 -12z m1217 -10 c-3 -8 -6 -5
-6 6 -1 11 2 17 5 13 3 -3 4 -12 1 -19z m-2957 -20 c0 -6 -6 -5 -15 2 -8 7
-15 14 -15 16 0 2 7 1 15 -2 8 -4 15 -11 15 -16z m4094 -42 c-5 -13 -10 -14
-20 -5 -10 8 -11 16 -3 32 10 18 13 18 20 4 5 -8 6 -23 3 -31z m-957 -28 c-3
-7 -5 -2 -5 12 0 14 2 19 5 13 2 -7 2 -19 0 -25z m-107 -23 c0 -18 -4 -23 -15
-19 -8 4 -15 15 -15 25 0 10 7 19 15 19 9 0 15 -9 15 -25z m1150 15 c0 -5 -2
-10 -4 -10 -3 0 -8 5 -11 10 -3 6 -1 10 4 10 6 0 11 -4 11 -10z m-1223 -22
c-3 -8 -6 -5 -6 6 -1 11 2 17 5 13 3 -3 4 -12 1 -19z m1493 -78 c0 -5 -5 -10
-11 -10 -5 0 -7 5 -4 10 3 6 8 10 11 10 2 0 4 -4 4 -10z m397 -192 c-3 -8 -6
-5 -6 6 -1 11 2 17 5 13 3 -3 4 -12 1 -19z m-570 -50 c-3 -7 -5 -2 -5 12 0 14
2 19 5 13 2 -7 2 -19 0 -25z m-285 -20 c-7 -7 -12 -8 -12 -2 0 14 12 26 19 19
2 -3 -1 -11 -7 -17z m-45 -40 c-3 -8 -6 -5 -6 6 -1 11 2 17 5 13 3 -3 4 -12 1
-19z m-1619 -57 c4 -25 -13 -49 -25 -37 -4 4 -1 11 7 16 10 7 11 10 3 10 -7 0
-13 9 -13 21 0 28 24 19 28 -10z m2342 -32 c0 -6 -4 -7 -10 -4 -5 3 -10 11
-10 16 0 6 5 7 10 4 6 -3 10 -11 10 -16z m-393 -11 c-3 -8 -6 -5 -6 6 -1 11 2
17 5 13 3 -3 4 -12 1 -19z m768 13 c3 -5 1 -12 -5 -16 -5 -3 -10 1 -10 9 0 18
6 21 15 7z m-925 -58 c0 -7 -5 -13 -10 -13 -25 0 -103 -45 -140 -81 -22 -21
-40 -34 -40 -29 0 22 47 80 78 97 17 10 32 21 32 24 0 4 9 5 20 2 11 -3 20 -1
20 4 0 5 9 9 20 9 11 0 20 -6 20 -13z m730 7 c0 -5 -5 -10 -11 -10 -5 0 -7 5
-4 10 3 6 8 10 11 10 2 0 4 -4 4 -10z m-666 -44 c9 3 16 1 16 -5 0 -6 -6 -11
-14 -11 -27 0 -46 12 -46 29 1 14 2 14 14 -2 8 -10 20 -15 30 -11z m93 2 c-3
-8 -6 -5 -6 6 -1 11 2 17 5 13 3 -3 4 -12 1 -19z m-157 -40 c-1 -7 -23 -23
-49 -36 -56 -26 -133 -90 -125 -103 3 -5 0 -9 -5 -9 -15 0 -13 19 7 59 20 40
112 96 142 86 12 -4 20 -2 20 4 0 6 2 11 5 11 3 0 5 -6 5 -12z m5373 -66 c4 9
6 9 6 1 2 -20 -16 -24 -30 -5 -13 15 -12 16 3 4 13 -10 17 -10 21 0z m-5373
-43 c0 -6 -4 -7 -10 -4 -5 3 -10 11 -10 16 0 6 5 7 10 4 6 -3 10 -11 10 -16z
m-72 -11 c-7 -13 -11 -26 -10 -30 1 -5 -6 -8 -16 -8 -10 0 -23 -5 -30 -12 -9
-9 -15 -9 -24 0 -13 13 -3 28 21 34 8 2 23 11 33 21 26 25 41 22 26 -5z m5432
2 c0 -5 -5 -10 -11 -10 -5 0 -7 5 -4 10 3 6 8 10 11 10 2 0 4 -4 4 -10z
m-5300 -20 c12 -23 3 -25 -22 -6 -22 16 -23 26 -3 26 8 0 19 -9 25 -20z m60
10 c0 -12 -28 -25 -36 -17 -9 9 6 27 22 27 8 0 14 -5 14 -10z m4320 0 c0 -5
-2 -10 -4 -10 -3 0 -8 5 -11 10 -3 6 -1 10 4 10 6 0 11 -4 11 -10z m-4000 -25
c0 -8 -4 -15 -10 -15 -5 0 -7 7 -4 15 4 8 8 15 10 15 2 0 4 -7 4 -15z m-4157
-15 c3 -11 1 -18 -4 -14 -5 3 -9 12 -9 20 0 20 7 17 13 -6z m3707 5 c0 6 5 2
11 -7 5 -10 19 -18 29 -18 10 0 22 -5 26 -11 3 -6 17 -8 31 -4 20 5 24 2 21
-12 -5 -30 -56 -29 -80 0 -20 25 -20 25 -67 9 -25 -10 -47 -20 -49 -24 -2 -5
-10 -8 -18 -8 -8 0 -14 -4 -14 -10 0 -5 -5 -10 -11 -10 -14 0 -48 -41 -49 -57
0 -7 5 -13 10 -13 6 0 10 4 10 10 0 17 104 70 130 66 46 -7 70 -18 70 -32 0
-14 33 -14 46 -1 4 4 15 7 25 7 12 0 16 -6 12 -20 -3 -11 -8 -20 -12 -21 -3 0
-15 -2 -26 -4 -35 -7 -63 6 -69 31 l-6 24 -33 -20 c-17 -11 -40 -20 -49 -20
-10 0 -18 -4 -18 -10 0 -5 9 -10 20 -10 24 0 27 -28 4 -37 -10 -4 -20 0 -26
10 -14 25 -34 21 -68 -15 -33 -34 -45 -34 -32 3 6 15 5 30 -2 41 -11 18 4 57
37 98 20 25 131 78 139 66 5 -7 8 -7 8 -1z m-3733 -17 c2 -17 0 -19 -7 -8 -5
8 -6 18 -4 22 8 12 10 10 11 -14z m8183 3 c0 -10 -7 -21 -14 -24 -10 -4 -13
-1 -9 9 3 8 -1 14 -8 15 -11 0 9 13 29 18 1 1 2 -8 2 -18z m-4604 -27 c-22
-21 -31 -12 -16 16 8 15 15 19 22 12 8 -8 6 -16 -6 -28z m-3581 -14 c-3 -5 -1
-10 6 -10 7 0 10 -3 6 -6 -9 -9 -28 6 -22 17 4 5 8 9 11 9 3 0 2 -4 -1 -10z
m4292 -12 c-3 -8 -6 -5 -6 6 -1 11 2 17 5 13 3 -3 4 -12 1 -19z m-1937 -8 c0
-5 -4 -10 -10 -10 -5 0 -10 5 -10 10 0 6 5 10 10 10 6 0 10 -4 10 -10z m-2354
-36 c-4 -9 -9 -15 -11 -12 -3 3 -3 13 1 22 4 9 9 15 11 12 3 -3 3 -13 -1 -22z
m4125 -37 c-8 -8 -11 -7 -11 4 0 20 13 34 18 19 3 -7 -1 -17 -7 -23z m166 -9
c-3 -8 -6 -5 -6 6 -1 11 2 17 5 13 3 -3 4 -12 1 -19z m880 -8 c-2 -30 -27 -34
-27 -5 0 15 6 25 14 25 9 0 14 -9 13 -20z m-337 -5 c0 -8 -2 -15 -4 -15 -2 0
-6 7 -10 15 -3 8 -1 15 4 15 6 0 10 -7 10 -15z m-1085 -111 c-7 -8 -25 -18
-39 -24 -21 -8 -27 -6 -36 10 -7 13 -7 21 1 25 44 28 104 18 74 -11z m482 -26
c-3 -8 -6 -5 -6 6 -1 11 2 17 5 13 3 -3 4 -12 1 -19z m-638 -49 c-43 -38 -50
-29 -10 13 17 18 31 38 32 43 1 6 3 2 6 -8 3 -12 -7 -29 -28 -48z m318 29 c-3
-8 -6 -5 -6 6 -1 11 2 17 5 13 3 -3 4 -12 1 -19z m923 -13 c0 -8 -2 -15 -4
-15 -2 0 -6 7 -10 15 -3 8 -1 15 4 15 6 0 10 -7 10 -15z m-1194 -83 c-12 -13
-18 -13 -28 -4 -9 9 -9 12 4 12 9 0 19 12 24 28 7 27 8 27 12 3 2 -13 -3 -31
-12 -39z m651 16 c-3 -8 -6 -5 -6 6 -1 11 2 17 5 13 3 -3 4 -12 1 -19z m-505
-63 c0 -5 -5 -11 -11 -13 -6 -2 -11 4 -11 13 0 9 5 15 11 13 6 -2 11 -8 11
-13z m505 -27 c-3 -8 -6 -5 -6 6 -1 11 2 17 5 13 3 -3 4 -12 1 -19z m543 -13
c0 -8 -2 -15 -4 -15 -2 0 -6 7 -10 15 -3 8 -1 15 4 15 6 0 10 -7 10 -15z
m-1220 -26 c0 -5 -4 -9 -10 -9 -5 0 -10 7 -10 16 0 8 5 12 10 9 6 -3 10 -10
10 -16z m677 -41 c-3 -8 -6 -5 -6 6 -1 11 2 17 5 13 3 -3 4 -12 1 -19z m543
-14 c0 -8 -4 -12 -10 -9 -5 3 -10 10 -10 16 0 5 5 9 10 9 6 0 10 -7 10 -16z
m-1110 -8 c0 -3 -4 -16 -9 -29 -7 -19 -16 -23 -40 -22 -17 1 -31 -3 -31 -9 -1
-6 -20 -21 -44 -32 -41 -21 -42 -21 -41 -2 1 21 24 40 37 32 4 -3 5 1 2 9 -3
10 11 20 48 35 52 20 78 26 78 18z m17 -28 c-3 -7 -5 -2 -5 12 0 14 2 19 5 13
2 -7 2 -19 0 -25z m35 -16 c-4 -11 -6 -11 -13 0 -5 7 -9 22 -9 32 0 19 0 19
14 1 8 -11 11 -25 8 -33z m-3287 28 c-3 -5 -12 -10 -18 -10 -7 0 -6 4 3 10 19
12 23 12 15 0z m46 -8 c-7 -2 -18 1 -23 6 -8 8 -4 9 13 5 13 -4 18 -8 10 -11z
m3309 -23 c0 -21 -29 -33 -46 -18 -19 15 -8 34 21 34 17 0 25 -6 25 -16z m990
-30 c0 -11 -4 -17 -10 -14 -5 3 -10 13 -10 21 0 8 5 14 10 14 6 0 10 -9 10
-21z m-1050 -83 c-14 -14 -24 0 -16 21 6 15 8 15 16 3 6 -9 5 -19 0 -24z
m-3700 -32 c0 -8 -4 -12 -10 -9 -5 3 -10 10 -10 16 0 5 5 9 10 9 6 0 10 -7 10
-16z m3602 -46 c-15 -15 -26 -4 -18 18 5 13 9 15 18 6 9 -9 9 -15 0 -24z
m-157 12 c3 -5 1 -10 -4 -10 -6 0 -11 5 -11 10 0 6 2 10 4 10 3 0 8 -4 11 -10z
m1314 -49 c2 -26 -13 -1 -16 27 -2 23 -1 24 7 7 5 -11 9 -26 9 -34z m-1239 -2
c0 -11 -4 -17 -10 -14 -5 3 -10 13 -10 21 0 8 5 14 10 14 6 0 10 -9 10 -21z
m-2850 -29 c0 -5 -5 -10 -11 -10 -5 0 -7 5 -4 10 3 6 8 10 11 10 2 0 4 -4 4
-10z m2870 -30 c0 -5 -5 -10 -11 -10 -5 0 -7 5 -4 10 3 6 8 10 11 10 2 0 4 -4
4 -10z m-6695 -40 c3 -5 1 -10 -4 -10 -6 0 -11 5 -11 10 0 6 2 10 4 10 3 0 8
-4 11 -10z m1145 2 c0 -15 -11 -21 -27 -15 -12 5 -12 7 -1 14 17 11 28 11 28
1z m50 -20 c0 -15 -2 -15 -10 -2 -13 20 -13 33 0 25 6 -3 10 -14 10 -23z
m-670 -5 c10 -4 8 -6 -7 -6 -16 -1 -23 5 -23 17 0 10 3 13 8 6 4 -6 14 -14 22
-17z m6350 -2 c0 -16 -35 -21 -45 -6 -4 8 9 15 38 20 4 0 7 -6 7 -14z m-5740
-30 c0 -8 -4 -15 -10 -15 -5 0 -7 7 -4 15 4 8 8 15 10 15 2 0 4 -7 4 -15z m85
-5 c3 -5 1 -10 -4 -10 -6 0 -11 5 -11 10 0 6 2 10 4 10 3 0 8 -4 11 -10z m390
-10 c3 -6 -1 -7 -9 -4 -18 7 -21 14 -7 14 6 0 13 -4 16 -10z m-1585 -4 c0 -3
-4 -8 -10 -11 -5 -3 -10 -1 -10 4 0 6 5 11 10 11 6 0 10 -2 10 -4z m743 -42
c-5 -15 -3 -15 24 0 17 8 33 12 37 9 12 -12 6 -43 -9 -43 -8 0 -15 6 -15 13 0
9 -2 9 -8 0 -4 -7 -18 -11 -30 -8 -19 3 -22 1 -17 -15 5 -17 2 -20 -21 -20
-23 0 -25 2 -13 17 13 15 11 16 -13 9 -16 -3 -28 -2 -28 3 0 10 38 24 58 22 7
-1 15 5 18 14 3 8 10 15 15 15 4 0 6 -7 2 -16z m227 1 c0 -8 5 -15 11 -15 6 0
9 -7 5 -15 -3 -9 0 -15 9 -15 27 0 15 -17 -16 -24 -49 -9 -55 -8 -67 18 -9 20
-8 25 9 29 10 3 19 12 19 21 0 9 7 16 15 16 8 0 15 -7 15 -15z m4367 -1 c-3
-3 -12 -4 -19 -1 -8 3 -5 6 6 6 11 1 17 -2 13 -5z m1243 -19 c3 -1 22 -7 43
-15 33 -12 37 -18 37 -49 0 -19 -3 -31 -7 -27 -5 4 -8 17 -8 29 0 29 -21 32
-30 5 -8 -22 -8 -22 -12 5 -4 26 -34 52 -47 40 -3 -3 -6 1 -6 11 0 11 4 14 13
9 6 -4 14 -8 17 -8z m-5270 -5 c0 -5 -5 -10 -11 -10 -5 0 -7 5 -4 10 3 6 8 10
11 10 2 0 4 -4 4 -10z m2140 -20 c0 -5 -5 -10 -11 -10 -5 0 -7 5 -4 10 3 6 8
10 11 10 2 0 4 -4 4 -10z m3040 -15 c0 -8 -4 -15 -10 -15 -5 0 -10 7 -10 15 0
8 5 15 10 15 6 0 10 -7 10 -15z m-4945 -4 c3 -5 1 -12 -4 -15 -5 -3 -11 1 -15
9 -6 16 9 21 19 6z m125 -12 c0 -11 -4 -18 -10 -14 -5 3 -7 12 -3 20 7 21 13
19 13 -6z m4854 0 c-3 -5 -10 -7 -15 -3 -5 3 -7 10 -3 15 3 5 10 7 15 3 5 -3
7 -10 3 -15z m-5094 -10 c0 -10 -7 -11 -37 -3 -34 9 -28 21 7 16 17 -2 30 -8
30 -13z m5140 11 c0 -5 -4 -10 -10 -10 -5 0 -10 5 -10 10 0 6 5 10 10 10 6 0
10 -4 10 -10z m-3380 -10 c0 -5 -5 -10 -11 -10 -5 0 -7 5 -4 10 3 6 8 10 11
10 2 0 4 -4 4 -10z m-1970 -4 c0 -3 -4 -8 -10 -11 -5 -3 -10 -1 -10 4 0 6 5
11 10 11 6 0 10 -2 10 -4z m96 -21 c-14 -14 -16 -14 -16 -2 0 9 6 17 13 20 19
7 21 -1 3 -18z m1829 15 c-3 -5 -11 -10 -16 -10 -6 0 -7 5 -4 10 3 6 11 10 16
10 6 0 7 -4 4 -10z m642 -6 c2 -6 -3 -11 -12 -11 -8 0 -15 7 -15 15 0 15 22
12 27 -4z m-3040 0 c-3 -3 -12 -4 -19 -1 -8 3 -5 6 6 6 11 1 17 -2 13 -5z
m503 -10 c0 -8 -4 -12 -10 -9 -5 3 -10 10 -10 16 0 5 5 9 10 9 6 0 10 -7 10
-16z m110 -4 c0 -5 14 -10 30 -10 17 0 30 -4 30 -10 0 -11 -24 -13 -57 -4 -22
6 -33 34 -13 34 6 0 10 -4 10 -10z m5613 -22 c-3 -18 -10 -25 -20 -21 -12 5
-12 7 -1 14 10 7 9 9 -4 9 -26 0 -22 18 5 22 12 2 23 4 24 3 1 0 -1 -12 -4
-27z m157 12 c0 -16 -5 -19 -30 -13 -23 4 -30 2 -30 -11 0 -23 -27 -20 -33 4
-7 26 0 29 46 25 20 -2 37 1 37 6 0 5 2 9 5 9 3 0 5 -9 5 -20z m-118 -22 c-5
-21 -6 -21 -12 -2 -8 21 -3 37 10 29 4 -3 6 -15 2 -27z m182 16 c9 -3 16 -17
16 -31 0 -36 -34 -27 -37 10 -2 30 -2 30 21 21z m-6191 -21 c-7 -2 -13 -9 -13
-14 0 -6 4 -8 9 -4 5 3 12 1 16 -5 11 -18 -23 -22 -47 -6 -12 9 -19 17 -15 17
4 1 11 2 16 3 5 0 13 4 17 9 4 4 12 7 18 6 6 0 5 -3 -1 -6z m6107 -3 c0 -5 -7
-10 -16 -10 -8 0 -12 5 -9 10 3 6 10 10 16 10 5 0 9 -4 9 -10z m-6010 -42 c0
-4 -4 -8 -10 -8 -5 0 -10 -8 -11 -17 0 -13 -3 -11 -10 6 -5 13 -7 33 -3 44 6
20 7 20 20 2 8 -10 14 -22 14 -27z m190 27 c-27 -14 -36 -13 -25 4 3 6 16 11
28 11 21 -1 21 -1 -3 -15z m167 -7 c-3 -8 -6 -5 -6 6 -1 11 2 17 5 13 3 -3 4
-12 1 -19z m43 18 c0 -11 -19 -15 -25 -6 -3 5 1 10 9 10 9 0 16 -2 16 -4z
m2350 -6 c0 -10 -31 -18 -48 -13 -6 3 -10 8 -7 13 6 10 55 10 55 0z m3416 -26
c-5 -13 -10 -14 -18 -6 -6 6 -8 18 -4 28 5 13 10 14 18 6 6 -6 8 -18 4 -28z
m-6356 16 c0 -5 -5 -10 -11 -10 -5 0 -7 5 -4 10 3 6 8 10 11 10 2 0 4 -4 4
-10z m667 -5 c-4 -8 -2 -17 2 -19 10 -7 2 -56 -9 -56 -7 0 -7 21 -1 83 1 4 4
7 7 7 3 0 4 -7 1 -15z m-417 -16 c0 -11 -27 -12 -34 0 -3 4 -3 11 0 14 8 8 34
-3 34 -14z m462 -3 c3 -14 1 -31 -4 -38 -8 -10 -9 -10 -5 2 2 8 0 25 -4 38 -5
12 -5 22 0 22 5 0 11 -11 13 -24z m-424 -11 c-3 -3 -9 2 -12 12 -6 14 -5 15 5
6 7 -7 10 -15 7 -18z m337 15 c3 -5 1 -10 -4 -10 -6 0 -11 5 -11 10 0 6 2 10
4 10 3 0 8 -4 11 -10z m135 6 c0 -3 -4 -8 -10 -11 -5 -3 -10 -1 -10 4 0 6 5
11 10 11 6 0 10 -2 10 -4z m-843 -12 c-3 -3 -12 -4 -19 -1 -8 3 -5 6 6 6 11 1
17 -2 13 -5z m561 -19 c-3 -3 -9 2 -12 12 -6 14 -5 15 5 6 7 -7 10 -15 7 -18z
m5558 -19 c-1 -18 -4 -22 -13 -14 -17 14 -16 38 1 38 8 0 13 -9 12 -24z m83
17 c0 -5 -4 -17 -9 -28 -7 -17 -9 -17 -9 -2 -1 24 -18 21 -24 -5 -7 -26 -16
-20 -23 16 -4 24 -2 26 31 26 19 0 35 -3 34 -7z m50 -20 c-1 -17 -3 -21 -6
-10 -2 9 -10 17 -16 17 -7 0 -6 4 3 10 20 13 20 13 19 -17z m43 0 c-4 -20 -7
-23 -10 -10 -2 9 -8 17 -13 17 -5 0 -9 5 -9 10 0 6 8 10 19 10 15 0 17 -5 13
-27z m-5577 7 c3 -5 1 -10 -4 -10 -6 0 -11 5 -11 10 0 6 2 10 4 10 3 0 8 -4
11 -10z m1919 -16 c20 -19 11 -40 -10 -23 -13 10 -20 39 -10 39 3 0 12 -7 20
-16z m3745 2 c12 -14 5 -46 -10 -46 -8 0 -29 41 -29 56 0 10 28 3 39 -10z
m261 10 c0 -3 -4 -8 -10 -11 -5 -3 -10 -1 -10 4 0 6 5 11 10 11 6 0 10 -2 10
-4z m-4065 -16 c-3 -5 -12 -10 -18 -10 -7 0 -6 4 3 10 19 12 23 12 15 0z m-78
-23 c-6 -20 -27 -19 -27 2 0 14 5 19 15 14 9 -3 14 -10 12 -16z m3927 17 c9
-3 16 -17 16 -31 0 -19 -4 -24 -16 -19 -9 3 -18 6 -20 6 -2 0 -4 11 -4 25 0
27 1 28 24 19z m-493 -47 c-8 -8 -11 -7 -11 4 0 20 13 34 18 19 3 -7 -1 -17
-7 -23z m536 1 c-3 -7 -5 -2 -5 12 0 14 2 19 5 13 2 -7 2 -19 0 -25z m-807 -5
c0 -19 -13 -9 -16 12 -1 8 2 13 7 9 5 -3 9 -12 9 -21z m840 -3 c0 -11 -4 -20
-8 -20 -4 0 -8 9 -9 20 -1 11 2 20 8 20 5 0 9 -9 9 -20z m-494 -5 c4 -8 3 -23
-1 -32 -6 -15 -8 -16 -13 -3 -3 8 -9 18 -15 21 -11 8 -1 29 14 29 5 0 12 -7
15 -15z m36 -15 c-2 -16 -8 -27 -13 -24 -11 6 -12 38 -2 47 14 14 19 6 15 -23z
m-317 10 c13 -6 15 -9 5 -9 -8 0 -22 4 -30 9 -18 12 -2 12 25 0z m385 -6 c0
-8 -5 -12 -10 -9 -6 4 -8 11 -5 16 9 14 15 11 15 -7z m22 -19 c-6 -34 -12 -32
-12 6 0 16 4 28 9 25 4 -3 6 -17 3 -31z m48 28 c0 -5 -4 -14 -9 -21 -7 -11 -9
-11 -14 1 -3 8 -3 18 0 21 9 8 23 7 23 -1z m110 -23 c0 -20 -5 -30 -15 -30 -8
0 -15 5 -15 10 0 6 -11 8 -25 6 -14 -3 -25 -1 -25 4 0 5 -2 14 -5 22 -4 10 7
14 40 15 44 2 45 1 45 -27z m244 24 c9 -3 16 -14 15 -23 0 -10 -2 -11 -6 -3
-2 6 -8 10 -13 7 -4 -3 -10 2 -14 10 -6 17 -4 18 18 9z m583 -16 c-3 -8 -6 -5
-6 6 -1 11 2 17 5 13 3 -3 4 -12 1 -19z m-531 -23 c1 -8 -2 -15 -7 -15 -5 0
-9 4 -9 9 0 5 -3 18 -6 28 -6 15 -4 16 6 6 8 -7 15 -20 16 -28z m49 25 c3 -5
1 -10 -4 -10 -6 0 -11 5 -11 10 0 6 2 10 4 10 3 0 8 -4 11 -10z m-262 -13 c4
3 7 -1 7 -10 0 -9 -7 -17 -15 -17 -8 0 -15 2 -15 4 0 2 -3 13 -7 23 -6 15 -4
16 9 6 8 -7 18 -10 21 -6z m-913 -27 c1 -11 4 -10 15 4 8 11 15 18 16 15 0 -2
2 -14 5 -26 3 -19 0 -22 -36 -21 -22 0 -43 4 -46 9 -3 5 -10 7 -15 4 -5 -4 -9
3 -9 14 0 16 6 19 35 18 23 -1 35 -7 35 -17z m86 -19 c8 6 14 19 14 28 0 14 2
14 10 1 6 -10 10 -11 10 -2 0 19 30 14 30 -5 1 -16 2 -16 10 -2 13 22 81 13
87 -12 6 -23 33 -26 33 -4 0 8 5 15 11 15 6 0 9 -7 5 -15 -3 -8 -1 -15 4 -15
6 0 10 -4 10 -10 0 -5 -15 -8 -32 -6 -18 2 -48 4 -65 5 -27 1 -33 5 -34 24 -2
20 -2 20 -6 2 -2 -12 -13 -27 -25 -34 -41 -25 -122 31 -90 63 4 4 8 -4 10 -19
3 -21 6 -24 18 -14z m-5589 7 c-3 -8 -6 -5 -6 6 -1 11 2 17 5 13 3 -3 4 -12 1
-19z m7097 7 c3 -8 1 -15 -4 -15 -6 0 -10 7 -10 15 0 8 2 15 4 15 2 0 6 -7 10
-15z m75 -12 c7 -13 7 -24 2 -28 -13 -7 -34 32 -25 46 7 12 7 12 23 -18z
m-1339 -4 c0 -5 -4 -9 -10 -9 -5 0 -10 7 -10 16 0 8 5 12 10 9 6 -3 10 -10 10
-16z m154 5 c10 -26 7 -54 -7 -54 -18 0 -39 57 -23 64 19 8 24 6 30 -10z m830
-18 c6 -26 5 -27 -8 -13 -9 9 -13 23 -10 32 8 19 9 18 18 -19z m-277 -11 c2
-14 0 -25 -5 -25 -12 0 -23 40 -16 52 8 13 18 1 21 -27z m320 13 c-3 -8 -6 -5
-6 6 -1 11 2 17 5 13 3 -3 4 -12 1 -19z m-967 -24 c0 -23 -1 -24 -16 -9 -9 8
-13 22 -10 31 8 22 26 7 26 -22z m160 -3 c0 -17 -3 -22 -8 -13 -5 7 -16 10
-24 7 -12 -5 -14 -1 -11 18 7 35 43 25 43 -12z m540 -2 c0 -20 -24 -26 -35 -9
-4 6 -4 17 -1 25 7 20 36 7 36 -16z m-6593 -1 c-3 -8 -6 -5 -6 6 -1 11 2 17 5
13 3 -3 4 -12 1 -19z m6083 12 c0 -5 -4 -10 -10 -10 -5 0 -10 5 -10 10 0 6 5
10 10 10 6 0 10 -4 10 -10z m-6350 -10 c0 -5 -4 -10 -10 -10 -5 0 -10 5 -10
10 0 6 5 10 10 10 6 0 10 -4 10 -10z m90 -10 c0 -5 -4 -10 -10 -10 -5 0 -10 5
-10 10 0 6 5 10 10 10 6 0 10 -4 10 -10z m7640 -20 c0 -11 -4 -20 -9 -20 -5 0
-7 9 -4 20 3 11 7 20 9 20 2 0 4 -9 4 -20z m-1775 0 c3 -5 1 -10 -4 -10 -6 0
-11 5 -11 10 0 6 2 10 4 10 3 0 8 -4 11 -10z m85 -12 c0 -13 -53 -6 -57 8 -2
7 8 9 27 6 16 -2 30 -9 30 -14z m1120 6 c0 -8 -4 -12 -10 -9 -5 3 -10 10 -10
16 0 5 5 9 10 9 6 0 10 -7 10 -16z m283 -27 c-4 -6 -10 -2 -14 9 -12 31 -9 40
6 20 8 -10 11 -24 8 -29z m-7181 11 c-7 -7 -12 -8 -12 -2 0 14 12 26 19 19 2
-3 -1 -11 -7 -17z m6818 12 c0 -5 -5 -10 -11 -10 -5 0 -7 5 -4 10 3 6 8 10 11
10 2 0 4 -4 4 -10z m-7933 -32 c-3 -8 -6 -5 -6 6 -1 11 2 17 5 13 3 -3 4 -12
1 -19z m6628 12 c3 -5 -1 -10 -10 -10 -9 0 -13 5 -10 10 3 6 8 10 10 10 2 0 7
-4 10 -10z m84 1 c10 -7 7 -9 -12 -8 -15 1 -27 5 -27 10 0 10 22 9 39 -2z m71
-6 c0 -9 -6 -12 -15 -9 -8 4 -15 10 -15 15 0 5 7 9 15 9 8 0 15 -7 15 -15z
m140 -17 c0 -4 -6 -5 -14 -2 -8 3 -12 12 -9 21 5 12 7 12 14 1 5 -7 9 -16 9
-20z m40 7 c0 -14 -4 -25 -10 -25 -5 0 -10 11 -10 25 0 14 5 25 10 25 6 0 10
-11 10 -25z m49 -20 c-1 -18 -3 -23 -6 -12 -4 14 -8 16 -19 6 -11 -9 -14 -7
-14 14 0 20 5 25 20 24 16 -1 20 -8 19 -32z m931 13 c0 -18 -2 -20 -9 -8 -6 8
-7 18 -5 22 9 14 14 9 14 -14z m523 -4 c-4 -12 -8 -13 -14 -3 -9 15 -2 32 11
24 5 -3 6 -13 3 -21z m-173 -34 c0 -13 -1 -13 -10 0 -5 8 -10 22 -10 30 0 13
1 13 10 0 5 -8 10 -22 10 -30z m-4707 13 c-7 -2 -19 -2 -25 0 -7 3 -2 5 12 5
14 0 19 -2 13 -5z m3182 -23 c0 -14 4 -31 8 -37 12 -18 3 -16 -21 6 -27 23
-30 64 -4 59 11 -2 17 -12 17 -28z m303 -14 c3 -15 1 -16 -17 -6 -12 6 -19 16
-15 21 9 15 28 5 32 -15z m-548 4 c0 -5 -4 -10 -10 -10 -5 0 -10 5 -10 10 0 6
5 10 10 10 6 0 10 -4 10 -10z m425 -9 c3 -5 1 -12 -5 -16 -5 -3 -10 1 -10 9 0
18 6 21 15 7z m-2945 -15 c-7 -7 -13 -7 -20 0 -6 6 -3 10 10 10 13 0 16 -4 10
-10z m2660 -6 c13 -9 13 -11 0 -20 -15 -10 -40 -14 -40 -6 0 11 13 36 19 36 3
0 13 -5 21 -10z m1000 6 c0 -3 -4 -8 -10 -11 -5 -3 -10 -1 -10 4 0 6 5 11 10
11 6 0 10 -2 10 -4z m-6605 -34 c-3 -3 -11 0 -18 7 -9 10 -8 11 6 5 10 -3 15
-9 12 -12z m2940 -4 c19 -9 28 -9 33 -1 4 6 8 -17 8 -51 1 -55 -1 -63 -22 -73
-19 -9 -26 -7 -40 8 -9 11 -27 19 -38 20 -12 0 -16 3 -9 5 7 3 9 12 6 20 -3 7
-9 11 -14 8 -5 -3 -9 -1 -9 3 0 5 16 15 35 22 19 7 35 19 35 27 0 8 -4 13 -9
9 -5 -3 -12 -1 -16 5 -8 13 8 13 40 -2z m2575 -13 c0 -14 5 -25 10 -25 6 0 10
12 10 26 0 32 24 27 28 -6 4 -28 -15 -42 -40 -29 -10 5 -18 6 -19 2 0 -4 -4 3
-10 15 -9 25 -5 42 12 42 5 0 9 -11 9 -25z m178 18 c-1 -5 4 -18 12 -30 19
-29 44 -31 37 -3 -6 22 8 28 16 8 3 -7 6 -3 6 8 1 17 6 20 26 16 14 -2 28 -8
31 -13 3 -5 14 -9 25 -9 12 0 19 -7 19 -19 0 -10 7 -21 15 -25 8 -3 15 -10 15
-15 0 -7 -9 -7 -27 0 -16 6 -55 12 -88 14 -34 1 -71 6 -84 10 -15 5 -21 4 -17
-3 4 -7 -3 -9 -20 -6 -42 8 -64 23 -64 44 0 26 9 25 20 -2 l9 -23 0 23 c1 15
7 22 21 22 11 0 20 -6 20 -12 0 -7 5 -5 11 5 10 17 21 23 17 10z m-223 -23 c0
-7 -6 -15 -12 -17 -8 -3 -13 4 -13 17 0 13 5 20 13 18 6 -3 12 -11 12 -18z
m-5404 -17 c13 -16 12 -17 -3 -4 -17 13 -22 21 -14 21 2 0 10 -8 17 -17z m54
-3 c3 -5 1 -10 -4 -10 -6 0 -11 5 -11 10 0 6 2 10 4 10 3 0 8 -4 11 -10z
m-109 -37 c-12 -12 -55 -11 -71 1 -16 11 -14 13 16 13 18 0 35 5 37 13 3 9 7
8 14 -4 6 -10 7 -20 4 -23z m149 17 c3 -6 -1 -17 -9 -26 -9 -8 -17 -27 -17
-42 -2 -24 -2 -25 -6 -4 -3 17 -9 21 -24 17 -13 -4 -19 -2 -19 9 0 9 5 16 10
16 6 0 10 6 10 14 0 22 43 35 55 16z m2565 -34 c0 -2 -13 -9 -30 -15 -16 -5
-30 -6 -30 -1 0 7 10 11 53 19 4 0 7 -1 7 -3z m2835 -40 c11 -9 -1 -6 -27 7
-27 12 -48 25 -48 30 0 9 45 -14 75 -37z m-5289 9 c1 -14 -2 -22 -7 -19 -11 6
-12 44 -1 44 4 0 8 -11 8 -25z m5579 15 c3 -5 -3 -10 -14 -10 -12 0 -21 5 -21
10 0 6 6 10 14 10 8 0 18 -4 21 -10z m-5865 -44 c0 -3 -4 -8 -10 -11 -5 -3
-10 -1 -10 4 0 6 5 11 10 11 6 0 10 -2 10 -4z m290 -42 c0 -20 -4 -24 -19 -19
-10 3 -25 0 -32 -7 -16 -15 -79 -19 -79 -5 0 5 -10 7 -22 4 -18 -5 -19 -4 -7
7 18 17 76 28 84 16 3 -5 20 -1 38 10 18 10 33 19 35 19 1 1 2 -11 2 -25z
m2710 22 c0 -3 -4 -8 -10 -11 -5 -3 -10 -1 -10 4 0 6 5 11 10 11 6 0 10 -2 10
-4z m2230 -26 c0 -5 -5 -10 -11 -10 -5 0 -7 5 -4 10 3 6 8 10 11 10 2 0 4 -4
4 -10z m1115 -31 c-8 -23 -8 -23 -15 -4 -9 26 -1 50 12 37 6 -6 7 -21 3 -33z
m-3335 27 c0 -3 -4 -8 -10 -11 -5 -3 -10 -1 -10 4 0 6 5 11 10 11 6 0 10 -2
10 -4z m2660 -17 c0 -5 -4 -9 -10 -9 -5 0 -10 7 -10 16 0 8 5 12 10 9 6 -3 10
-10 10 -16z m157 -11 c-3 -8 -6 -5 -6 6 -1 11 2 17 5 13 3 -3 4 -12 1 -19z
m-5285 -20 c-9 -9 -12 -7 -12 12 0 19 3 21 12 12 9 -9 9 -15 0 -24z m5198 23
c2 -1 -1 -6 -7 -12 -11 -11 -53 -4 -53 10 0 5 34 6 60 2z m33 -4 c3 -8 -1 -14
-8 -14 -7 0 -11 6 -8 14 3 7 6 13 8 13 2 0 5 -6 8 -13z m120 -19 c-2 -5 -5 -8
-8 -8 -3 0 -14 0 -25 0 -11 0 -20 4 -20 8 0 4 12 8 28 7 15 0 26 -3 25 -7z
m-5638 -8 c3 -6 -1 -7 -9 -4 -18 7 -21 14 -7 14 6 0 13 -4 16 -10z m5775 -25
c0 -8 -4 -15 -10 -15 -5 0 -10 7 -10 15 0 8 5 15 10 15 6 0 10 -7 10 -15z
m-1296 -26 c-3 -5 -10 -7 -15 -3 -5 3 -7 10 -3 15 3 5 10 7 15 3 5 -3 7 -10 3
-15z m43 -1 c-3 -8 -6 -5 -6 6 -1 11 2 17 5 13 3 -3 4 -12 1 -19z m-5072 -48
c9 -32 -7 -15 -24 25 -11 26 -11 28 2 15 8 -8 18 -26 22 -40z m2062 27 c-6
-20 -27 -19 -27 2 0 14 5 19 15 14 9 -3 14 -10 12 -16z m2913 19 c0 -3 -4 -8
-10 -11 -5 -3 -10 -1 -10 4 0 6 5 11 10 11 6 0 10 -2 10 -4z m0 -36 c0 -5 -5
-10 -11 -10 -5 0 -7 5 -4 10 3 6 8 10 11 10 2 0 4 -4 4 -10z m-4380 -31 c0 -6
-4 -7 -10 -4 -5 3 -10 11 -10 16 0 6 5 7 10 4 6 -3 10 -11 10 -16z m5480 2 c0
-6 -4 -13 -10 -16 -5 -3 -10 1 -10 9 0 9 5 16 10 16 6 0 10 -4 10 -9z m67 -23
c-3 -8 -6 -5 -6 6 -1 11 2 17 5 13 3 -3 4 -12 1 -19z m-5527 -24 c0 -8 -4 -12
-10 -9 -5 3 -10 13 -10 21 0 8 5 12 10 9 6 -3 10 -13 10 -21z m4360 -8 c0 -8
-4 -18 -10 -21 -5 -3 -10 3 -10 14 0 12 5 21 10 21 6 0 10 -6 10 -14z m50 -12
c0 -14 -4 -23 -10 -19 -5 3 -10 15 -10 26 0 10 5 19 10 19 6 0 10 -12 10 -26z
m-103 0 c-3 -3 -12 -4 -19 -1 -8 3 -5 6 6 6 11 1 17 -2 13 -5z m969 -15 c3 -6
0 -17 -7 -25 -18 -17 -44 -2 -36 20 7 18 33 21 43 5z m64 -3 c0 -28 -12 -46
-31 -46 -13 0 -19 7 -19 22 0 21 0 21 15 2 14 -18 14 -18 15 9 0 15 5 27 10
27 6 0 10 -6 10 -14z m-5879 -13 c13 -16 12 -17 -3 -4 -10 7 -18 15 -18 17 0
8 8 3 21 -13z m5950 -10 l1 -28 9 25 8 25 -2 -25 c-3 -35 -31 -33 -35 3 -2 15
1 27 7 27 6 0 11 -12 12 -27z m99 7 c0 -13 -11 -13 -30 0 -12 8 -11 10 8 10
12 0 22 -4 22 -10z m-1214 -30 c8 0 12 -4 9 -10 -11 -18 -45 -11 -45 8 0 25
14 38 18 18 2 -9 10 -16 18 -16z m1253 -8 c14 -11 14 -12 -4 -10 -13 2 -21 12
-22 28 -2 15 0 19 4 10 3 -8 13 -21 22 -28z m-1649 18 c0 -5 -7 -7 -15 -4 -8
4 -15 8 -15 10 0 2 7 4 15 4 8 0 15 -4 15 -10z m-2510 -30 c0 -5 -7 -7 -15 -4
-8 4 -15 8 -15 10 0 2 7 4 15 4 8 0 15 -4 15 -10z m3257 -32 c-3 -7 -5 -2 -5
12 0 14 2 19 5 13 2 -7 2 -19 0 -25z m493 28 c0 -3 -4 -8 -10 -11 -5 -3 -10
-1 -10 4 0 6 5 11 10 11 6 0 10 -2 10 -4z m76 -33 c-10 -10 -19 5 -10 18 6 11
8 11 12 0 2 -7 1 -15 -2 -18z m29 18 c3 -5 1 -12 -5 -16 -5 -3 -10 1 -10 9 0
18 6 21 15 7z m-2185 -5 c0 -3 -4 -8 -10 -11 -5 -3 -10 -1 -10 4 0 6 5 11 10
11 6 0 10 -2 10 -4z m2496 -32 c-4 -9 -9 -15 -11 -12 -3 3 -3 13 1 22 4 9 9
15 11 12 3 -3 3 -13 -1 -22z m-704 -40 c2 -19 0 -37 -4 -40 -4 -3 -8 6 -8 20
0 13 -3 31 -6 40 -3 9 -2 16 4 16 5 0 12 -16 14 -36z m-3695 11 c9 -24 -1 -27
-15 -5 -8 13 -8 20 -2 20 6 0 13 -7 17 -15z m4253 -39 c0 -3 -4 -8 -10 -11 -5
-3 -10 -1 -10 4 0 6 5 11 10 11 6 0 10 -2 10 -4z m153 -15 c3 -14 1 -18 -9
-14 -15 6 -18 16 -7 26 9 10 10 9 16 -12z m-4679 -26 c3 -8 1 -15 -4 -15 -6 0
-10 7 -10 15 0 8 2 15 4 15 2 0 6 -7 10 -15z m-194 -55 c0 -5 -5 -10 -11 -10
-5 0 -7 5 -4 10 3 6 8 10 11 10 2 0 4 -4 4 -10z m4120 -25 c0 -14 -4 -25 -10
-25 -11 0 -14 33 -3 43 11 11 13 8 13 -18z m-150 5 c0 -5 -4 -10 -10 -10 -5 0
-10 5 -10 10 0 6 5 10 10 10 6 0 10 -4 10 -10z m-4206 -34 c-3 -9 -10 -16 -15
-16 -5 0 -4 9 3 20 14 22 21 20 12 -4z m4216 4 c0 -5 -5 -10 -11 -10 -5 0 -7
5 -4 10 3 6 8 10 11 10 2 0 4 -4 4 -10z m1080 -30 c0 -11 -4 -20 -10 -20 -5 0
-10 9 -10 20 0 11 5 20 10 20 6 0 10 -9 10 -20z m60 -1 c0 -11 -4 -18 -10 -14
-5 3 -7 12 -3 20 7 21 13 19 13 -6z m-5380 -3 c0 -3 -4 -8 -10 -11 -5 -3 -10
-1 -10 4 0 6 5 11 10 11 6 0 10 -2 10 -4z m36 -23 c-10 -10 -19 5 -10 18 6 11
8 11 12 0 2 -7 1 -15 -2 -18z m4454 -3 c0 -5 -4 -10 -10 -10 -5 0 -10 5 -10
10 0 6 5 10 10 10 6 0 10 -4 10 -10z m243 -90 c-5 -75 -5 -80 11 -95 10 -10
17 -12 21 -4 4 6 16 9 26 6 10 -3 22 -1 25 5 4 6 10 5 15 -3 5 -9 9 17 10 66
1 44 4 64 6 45 6 -55 11 -64 28 -50 11 9 19 7 37 -9 12 -12 28 -19 35 -17 26
10 12 -20 -17 -37 -31 -19 -37 -31 -20 -42 13 -8 13 -55 0 -55 -5 0 -12 16
-16 35 -6 35 -17 44 -29 25 -10 -16 -55 -12 -55 5 0 13 -4 14 -21 5 -15 -8
-24 -8 -33 0 -8 6 -29 9 -47 8 -29 -3 -34 0 -35 20 -1 15 3 21 12 18 17 -7 22
2 29 52 4 34 2 40 -10 36 -22 -9 -20 35 3 52 22 16 29 -3 25 -66z m-4729 51
c3 -5 -1 -14 -9 -21 -11 -9 -14 -8 -12 9 1 22 12 28 21 12z m4622 -42 c1 -21
-3 -39 -7 -39 -5 0 -9 21 -9 47 0 55 15 49 16 -8z m44 0 c0 -24 -4 -38 -10
-34 -17 10 -11 75 7 75 2 0 3 -18 3 -41z m137 -21 c-2 -13 -4 -3 -4 22 0 25 2
35 4 23 2 -13 2 -33 0 -45z m-5372 42 c3 -5 1 -10 -4 -10 -6 0 -11 5 -11 10 0
6 2 10 4 10 3 0 8 -4 11 -10z m5473 -14 c3 -12 -1 -17 -10 -14 -7 3 -15 13
-16 22 -3 12 1 17 10 14 7 -3 15 -13 16 -22z m32 -26 l-8 -35 -1 45 c-1 27 3
40 8 35 6 -6 6 -25 1 -45z m47 28 c-3 -8 -6 -5 -6 6 -1 11 2 17 5 13 3 -3 4
-12 1 -19z m49 -15 c-11 -11 -17 4 -9 23 7 18 8 18 11 1 2 -10 1 -21 -2 -24z
m-1036 2 c0 -8 -7 -15 -16 -15 -14 0 -14 3 -4 15 7 8 14 15 16 15 2 0 4 -7 4
-15z m518 -13 c2 -7 -3 -12 -12 -12 -9 0 -16 7 -16 16 0 17 22 14 28 -4z m772
6 c0 -4 -8 -8 -18 -8 -10 0 -23 -5 -29 -11 -6 -6 -17 -8 -23 -4 -8 5 -4 11 12
20 25 13 58 15 58 3z m-5990 -2 c0 -3 -4 -8 -10 -11 -5 -3 -10 -1 -10 4 0 6 5
11 10 11 6 0 10 -2 10 -4z m5763 -56 c3 -19 3 -29 0 -22 -3 9 -16 11 -39 6
-27 -5 -34 -3 -34 10 0 12 6 15 25 10 22 -5 25 -3 25 22 0 37 16 19 23 -26z
m102 40 c3 -6 -1 -13 -10 -16 -19 -8 -30 0 -20 15 8 14 22 14 30 1z m228 -15
c-3 -9 -8 -14 -10 -11 -3 3 -2 9 2 15 9 16 15 13 8 -4z m140 -73 c5 -6 22 -12
38 -12 17 0 28 -4 24 -10 -3 -5 -21 -9 -40 -8 -31 1 -34 5 -46 47 -20 72 -21
79 -2 36 10 -22 22 -46 26 -53z m-1503 27 c0 -16 -4 -29 -10 -29 -5 0 -10 16
-10 36 0 21 4 33 10 29 6 -3 10 -19 10 -36z m-4355 21 c-3 -5 -1 -10 6 -10 7
0 10 -3 6 -6 -9 -9 -28 6 -22 17 4 5 8 9 11 9 3 0 2 -4 -1 -10z m1295 2 c0
-15 -11 -21 -27 -15 -12 5 -12 7 -1 14 17 11 28 11 28 1z m4206 -47 c-9 -34
-36 -34 -69 -2 -28 27 -31 51 -5 29 22 -18 68 -10 69 13 1 18 2 18 6 2 3 -10
2 -29 -1 -42z m-996 35 c7 11 10 5 9 -25 0 -37 -1 -38 -11 -15 -8 18 -12 21
-16 10 -16 -43 -47 -44 -53 -1 -3 20 1 26 21 31 14 4 28 2 33 -4 5 -7 10 -6
17 4z m100 -46 c0 -49 -2 -55 -15 -44 -8 7 -14 24 -13 39 3 79 28 83 28 5z
m190 6 c0 -20 -2 -22 -10 -10 -5 8 -10 26 -10 40 0 20 2 22 10 10 5 -8 10 -26
10 -40z m-63 -2 c-3 -7 -5 -2 -5 12 0 14 2 19 5 13 2 -7 2 -19 0 -25z m243 15
c0 -6 -4 -15 -10 -18 -5 -3 -10 0 -10 7 0 11 -2 10 -9 0 -7 -11 -9 -11 -14 1
-3 8 -3 17 0 20 10 10 43 3 43 -10z m-5410 -3 c0 -5 -5 -10 -11 -10 -5 0 -7 5
-4 10 3 6 8 10 11 10 2 0 4 -4 4 -10z m5310 0 c0 -5 -5 -10 -11 -10 -5 0 -7 5
-4 10 3 6 8 10 11 10 2 0 4 -4 4 -10z m38 -12 c-2 -14 -11 -24 -23 -26 -18 -2
-18 -1 -4 10 9 7 14 19 12 26 -3 6 1 12 7 12 6 0 10 -10 8 -22z m747 2 c3 -5
1 -10 -4 -10 -6 0 -11 5 -11 10 0 6 2 10 4 10 3 0 8 -4 11 -10z m-30 -10 c3
-5 1 -10 -4 -10 -6 0 -11 5 -11 10 0 6 2 10 4 10 3 0 8 -4 11 -10z m205 -1 c0
-5 -17 -9 -37 -8 -27 0 -32 3 -20 8 28 11 57 11 57 0z m150 1 c8 -5 11 -13 6
-17 -12 -12 -56 -10 -56 2 0 25 24 32 50 15z m-283 -46 c-3 -3 -12 -4 -19 -1
-8 3 -5 6 6 6 11 1 17 -2 13 -5z m-5932 -14 c7 -12 -2 -12 -30 0 -19 8 -19 9
2 9 12 1 25 -3 28 -9z m40 -10 c3 -5 2 -10 -4 -10 -5 0 -13 5 -16 10 -3 6 -2
10 4 10 5 0 13 -4 16 -10z m69 -15 c16 -12 17 -15 4 -15 -8 0 -21 7 -28 15
-16 19 -1 19 24 0z m-377 -22 c0 -20 -21 -45 -30 -37 -7 7 13 54 23 54 4 0 7
-8 7 -17z m5463 -23 c0 -11 -4 -20 -10 -20 -5 0 -10 2 -10 4 0 2 -3 11 -6 20
-4 11 -1 16 10 16 9 0 16 -8 16 -20z m-5206 -35 c-4 -8 -13 -15 -21 -15 -13 0
-13 3 -3 15 7 8 16 15 21 15 5 0 6 -7 3 -15z m43 -21 c-3 -3 -12 -4 -19 -1 -8
3 -5 6 6 6 11 1 17 -2 13 -5z m4507 -8 c-10 -8 -21 -12 -24 -10 -5 6 21 24 34
24 6 0 1 -6 -10 -14z m-3029 -36 c3 -6 -1 -7 -9 -4 -18 7 -21 14 -7 14 6 0 13
-4 16 -10z m-1502 -17 c-7 -2 -21 -2 -30 0 -10 3 -4 5 12 5 17 0 24 -2 18 -5z
m1637 -3 c0 -5 -8 -10 -17 -10 -15 0 -16 2 -3 10 19 12 20 12 20 0z m-1665
-28 c-3 -3 -11 0 -18 7 -9 10 -8 11 6 5 10 -3 15 -9 12 -12z m30 -82 c-11 -5
-29 -8 -40 -8 -16 0 -15 2 5 8 34 11 60 11 35 0z m-65 -13 c0 -2 -13 -13 -28
-24 -18 -13 -34 -18 -42 -13 -10 6 -4 13 21 23 34 16 49 20 49 14z m70 -31 c0
-3 -4 -8 -10 -11 -5 -3 -10 -1 -10 4 0 6 5 11 10 11 6 0 10 -2 10 -4z m-33
-21 c9 -25 -4 -29 -17 -6 -7 15 -7 21 0 21 6 0 13 -7 17 -15z m-142 -26 c-4
-5 -12 -9 -18 -8 -9 0 -8 2 1 6 6 2 9 10 6 15 -4 7 -2 8 5 4 6 -4 9 -12 6 -17z
m3451 -29 c3 -14 7 -31 10 -38 3 -10 -10 -12 -54 -10 -51 3 -57 5 -60 26 -6
39 3 47 52 47 42 1 47 -2 52 -25z m-118 -10 c-2 -17 -7 -30 -11 -30 -4 0 -14
0 -22 0 -10 0 -15 10 -15 30 0 26 4 30 26 30 22 0 25 -4 22 -30z m3109 -12
c-3 -8 -6 -5 -6 6 -1 11 2 17 5 13 3 -3 4 -12 1 -19z m-6815 -23 c-12 -22 -27
-2 -18 22 5 12 10 13 17 6 7 -7 8 -17 1 -28z m2618 -24 c0 -5 -9 -7 -20 -4
-24 6 -26 -5 -5 -21 14 -10 13 -14 -7 -35 -13 -15 -23 -20 -26 -13 -2 7 -8 10
-13 6 -5 -3 0 13 12 35 13 26 28 41 40 41 10 0 19 -4 19 -9z m-1723 -7 c-3 -3
-12 -4 -19 -1 -8 3 -5 6 6 6 11 1 17 -2 13 -5z m-614 -81 c-7 -2 -19 -2 -25 0
-7 3 -2 5 12 5 14 0 19 -2 13 -5z m2230 -30 c-6 -19 -42 -52 -55 -53 -18 0 -6
30 18 49 33 26 45 27 37 4z m42 7 c-3 -5 -12 -10 -18 -10 -7 0 -6 4 3 10 19
12 23 12 15 0z m-2437 -40 c-8 -13 -15 -16 -19 -8 -6 9 -12 8 -26 -2 -16 -13
-16 -12 1 8 11 12 27 22 38 22 16 0 16 -3 6 -20z m92 -20 c0 -5 -2 -10 -4 -10
-3 0 -8 5 -11 10 -3 6 -1 10 4 10 6 0 11 -4 11 -10z m2234 -36 c3 -8 2 -12 -4
-9 -6 3 -10 10 -10 16 0 14 7 11 14 -7z m-27 -36 c-6 -4 -16 -3 -22 2 -7 6
-16 6 -23 0 -7 -6 -5 -2 3 8 14 15 17 15 25 2 8 -12 10 -12 10 5 0 16 2 17 10
5 6 -9 5 -17 -3 -22z m-1716 -21 c-13 -12 -20 -15 -16 -7 14 26 28 41 33 35 3
-3 -5 -16 -17 -28z m89 -2 c0 -8 -2 -15 -4 -15 -2 0 -6 7 -10 15 -3 8 -1 15 4
15 6 0 10 -7 10 -15z m1650 5 c0 -5 -5 -10 -11 -10 -5 0 -7 5 -4 10 3 6 8 10
11 10 2 0 4 -4 4 -10z m-73 -6 c-3 -3 -12 -4 -19 -1 -8 3 -5 6 6 6 11 1 17 -2
13 -5z m-1757 -34 c-9 -6 -9 -9 1 -13 9 -3 10 -6 2 -6 -6 -1 -15 4 -18 9 -9
14 4 32 17 24 7 -4 6 -9 -2 -14z m1790 -3 c0 -2 -9 -12 -19 -21 -14 -13 -21
-14 -27 -5 -4 7 -3 10 3 6 6 -4 16 0 23 8 12 14 20 19 20 12z m2810 -27 c0 -5
-7 -10 -15 -10 -8 0 -15 5 -15 10 0 6 7 10 15 10 8 0 15 -4 15 -10z m-2895
-10 c3 -5 1 -10 -4 -10 -6 0 -11 5 -11 10 0 6 2 10 4 10 3 0 8 -4 11 -10z m19
-25 c-4 -8 -11 -12 -16 -9 -6 4 -5 10 3 15 19 12 19 11 13 -6z"/>
<path d="M4350 7219 c0 -5 5 -7 10 -4 6 3 10 8 10 11 0 2 -4 4 -10 4 -5 0 -10
-5 -10 -11z"/>
<path d="M3001 6094 c0 -11 3 -14 6 -6 3 7 2 16 -1 19 -3 4 -6 -2 -5 -13z"/>
<path d="M3224 6009 c-19 -22 -19 -22 4 -8 12 8 22 17 22 21 0 12 -6 9 -26
-13z"/>
<path d="M3005 5959 c-4 -11 -4 -23 -1 -26 3 -4 6 1 6 11 0 9 4 14 10 11 6 -3
7 1 4 9 -8 21 -11 20 -19 -5z"/>
<path d="M3150 5940 c0 -5 5 -10 10 -10 6 0 10 5 10 10 0 6 -4 10 -10 10 -5 0
-10 -4 -10 -10z"/>
<path d="M3130 5886 c0 -9 5 -16 10 -16 6 0 10 4 10 9 0 6 -4 13 -10 16 -5 3
-10 -1 -10 -9z"/>
<path d="M3106 5873 c-11 -11 -6 -23 9 -23 8 0 15 4 15 9 0 13 -16 22 -24 14z"/>
<path d="M3011 5714 c0 -11 3 -14 6 -6 3 7 2 16 -1 19 -3 4 -6 -2 -5 -13z"/>
<path d="M3090 5671 c0 -26 13 -27 31 -3 7 9 9 14 5 10 -5 -4 -15 -3 -23 3
-10 9 -13 7 -13 -10z"/>
<path d="M4620 5666 c0 -9 5 -16 10 -16 6 0 10 4 10 9 0 6 -4 13 -10 16 -5 3
-10 -1 -10 -9z"/>
<path d="M2745 5700 c3 -5 8 -10 11 -10 2 0 4 5 4 10 0 6 -5 10 -11 10 -5 0
-7 -4 -4 -10z"/>
<path d="M2471 5663 c-1 -17 16 -25 25 -12 4 7 3 9 -4 5 -5 -3 -13 0 -15 6 -4
9 -6 10 -6 1z"/>
<path d="M2350 5651 c0 -5 -8 -12 -17 -14 -10 -2 -6 -3 10 -1 31 4 34 -3 10
-23 -16 -12 -15 -13 7 -2 34 16 34 16 17 34 -18 17 -27 19 -27 6z"/>
<path d="M2400 5641 c8 -16 6 -23 -10 -34 -20 -14 -20 -14 7 -14 15 0 23 2 16
4 -9 3 -6 11 7 26 27 28 25 37 -5 37 -22 0 -24 -3 -15 -19z"/>
<path d="M2510 5639 c-16 -30 -8 -31 13 -3 10 13 13 24 8 24 -6 0 -15 -9 -21
-21z"/>
<path d="M2252 5641 c-10 -6 -8 -10 9 -14 13 -4 25 -4 28 -2 2 3 -1 5 -8 5 -7
0 -9 5 -6 10 8 12 -5 13 -23 1z"/>
<path d="M2540 5625 c-7 -9 -8 -15 -2 -15 5 0 12 7 16 15 3 8 4 15 2 15 -2 0
-9 -7 -16 -15z"/>
<path d="M3400 5475 c0 -8 5 -15 10 -15 6 0 10 7 10 15 0 8 -4 15 -10 15 -5 0
-10 -7 -10 -15z"/>
<path d="M4665 5360 c-3 -5 1 -10 9 -10 9 0 16 5 16 10 0 6 -4 10 -9 10 -6 0
-13 -4 -16 -10z"/>
<path d="M3260 5330 c-8 -5 -12 -12 -9 -15 4 -3 12 1 19 10 14 17 11 19 -10 5z"/>
<path d="M4002 1964 c-11 -12 -10 -14 4 -14 10 0 14 -5 10 -15 -6 -17 2 -19
24 -5 13 8 12 12 -5 29 -17 17 -22 18 -33 5z"/>
<path d="M4500 471 c0 -11 5 -23 10 -26 6 -3 10 3 10 14 0 11 -4 23 -10 26 -5
3 -10 -3 -10 -14z"/>
<path d="M3300 365 c-7 -9 -8 -15 -2 -15 5 0 12 7 16 15 3 8 4 15 2 15 -2 0
-9 -7 -16 -15z"/>
</g>
</svg>
